<mxfile host="app.diagrams.net" modified="2023-07-30T18:26:38.604Z" agent="Mozilla/5.0 (Windows NT 10.0; Win64; x64) AppleWebKit/537.36 (KHTML, like Gecko) Chrome/115.0.0.0 Safari/537.36 Edg/115.0.1901.188" etag="jbPRQtAnCr-oB_gKRXFE" version="21.6.6" type="device">
  <diagram name="Page-1" id="m8GuBkP6Wdukx-mhdlZ-">
    <mxGraphModel dx="4015" dy="1865" grid="1" gridSize="10" guides="1" tooltips="1" connect="1" arrows="1" fold="1" page="1" pageScale="1" pageWidth="850" pageHeight="1100" math="0" shadow="0">
      <root>
        <mxCell id="0" />
        <mxCell id="1" parent="0" />
        <mxCell id="ts_R8RXMzpb8yJRLyrWi-1" value="" style="shape=image;verticalLabelPosition=bottom;labelBackgroundColor=default;verticalAlign=top;aspect=fixed;imageAspect=0;image=data:image/png,iVBORw0KGgoAAAANSUhEUgAAAh4AAAOZCAYAAABRASmeAAAAAXNSR0IArs4c6QAAIABJREFUeF7svX+MXtV197s8NRNj2dTWUE0depEvN5Gdf+J7ufwRCZDbRIK0cmWJqQJ6wXmNUgQGigeHRGpiDAHTH0DNmAIORRF+a3hVkMaSb600REpaC5CqKkKdSFFstZdrcUtc3zKxyzi2O1jjq/XYe7zn+Pmx137Oc87Z53xG4oc9a++99mfts/b37L3POYs++9nP/j//8i//slr4gQAEIBBI4DOf+cy5f/3Xf10caI4ZBCAAAfnsZz979F/+5V/+10Uicv78+fMggQAEIBBMYNGiRZo4gu0xhAAEIKB5Q0Ra/0Z4MB4gAAETAYSHCRfGEIBAS3EgPBgIEIBAJAGERyQ4ikGgwQQQHg0OPl2HQL8EEB79EqQ8BJpHAOHRvJiX2uMzZ87Iww8/LC+//LK89tprcuedd5bqD433RwDh0R8/StsIHDlyRG6//fZWoTfeeEPWrFljqwDrShBAeFQiDJeceP311+Wuu+66zKt7771XnnvuObnyyiu7euxP7O+8847ceOONleohwqNS4ejbGYRH3wgLrWB6erol9t966y259dZbRfPNyMhIoT700xjCox961SmL8KhOLFqeOOHxxBNPyKOPPmr2DuFhRkaBPgggPPqAV0LRd999V2666ab5lqt4c9INC8KjhEEzgCYRHgOA2k+VvYSH+72ugFx11VXyzDPPtJrTBHL99dfPb2P4Pujvjh492lpJ8cu5pJNNRv7qSrf2dDXFv4Nyba5bt27BMqhLFlNTUwvQ+Fst2ZUeX3j5yeb+++9v9SFWmPUTG8peTgDhkdaoePLJJ2XHjh3zTmevI/f7W265RY4fPy56zfrXs7tO/d+7/NNuddXV59px1/Jv/uZvtm6yli5dOp+zXD7K5hS//Xa5QNsnH6Q1DhEeFYtXqPBwF7v+V+9g3LJpuwvZX0npJEjchZtt3xcEmhiy7WWXabOJRe3d0m5WHDnh0alNJ4A++OCD1r6uL1xINNUYuAiPasQhxAs3of/7v/+7fOc735HHHntMnABw17ETCu7ae++991r5xf15//79rRsYl28++uij1rWZrcf5425qsvW5/LV27dr5c16aB7L1dfqz5gLNAY888shlwiWEBTblEkB4lMv/stY7nfHITtLZSVkr0sNW1157bdsL0V+5cGdF2m3LuEThEssPfvCD+ZUSLedEgGtPD3e1W/Vw5Q8fPrwgcWk5/3Dpbbfd1vGORxOk9kl/OFBWsYF60R2ERzXj0s4rPwc89dRT8u1vf7t1yNvfbum0QuGu95/85CcL8sHp06cX3FhkVz18saPX8ptvvikffvhhawV206ZNcsMNN7Su7S984QutM2xO2LgbCz+3qJ9XX331Zbkg63M6EWmupwiPisU+dMUjD+HRTjA4HKHCIysKNDG4J1W0L1nhkhUeX/7yly9LXCHJpmJha6w7CI80Qt/uUHe7m5HsJJ4VDlnh4V/Pnc6LuDp/+MMfyuTkpNx8883y/vvvtwTI2NiY6LaNu7HKbgX5dDsJj145M40INctLhEfF4t3rIsomi+wKRL8rHlkcvdrrdAek9YQID1Y8KjYAje4gPIzASjLvdM5K3fHPUOS94uHygG7P7Nq1S/7pn/5JHn/8cdG8sW/fPlm9erX84z/+4/yZsF75r93hUlY8ShpUfTSL8OgD3iCK9rrwegkBX3i0O7yZfSy33V2P3uW89NJLrf1Tt/TZaYVF92D9PWC3J5zdA3ZLte38y/bZbfdkD6S5Onh2fxAjL65OhEcct6JL9dpqza449Drz1ekMSLvH/X3Rk80LelbDz0mdnlrRbZjf+73fa2Hzt13dCqvbliU3FD2y4tpDeMRxG1ipXu/x6CUE9MLL3t1kn2rJvg8k+1SLdi57mKyT8ND2/OVRtdP9W3eno4fW2tWvv495qoWXBg1s6EVVjPCIwlZooW7vzskKkmeffXbBUy9+LlBR0S4/9XofiN++yyNarzvrlT0o3u1JOSc8sk/IpfZYcKEDoIKNITwqGBRcgkAqBBAeqUQqzM9e2xbtVk7CasYKApcIIDwYDRCAQDQBhEc0ukoWRHhUMiy1cwrhUbuQ0iEIFEcA4VEca1qCQF0IIDzqEkn6AYESCCA8SoBOkxBInADCI/EA4j4EyiSA8CiTPm1DIE0CCI8044bXEKgEAYRHJcKAExBIigDCI6lw4SwEqkUA4VGteOANBFIggPBIIUr4CIGKEkB4VDQwuAWBChOYFx4rVqw4cfLkyRUV9hXXIACBihFYsWLF+ZMnTy6qmFu4AwEIVJjAypUrT544cWKlJo7zIkICqXCwcA0CFSRA3qhgUHAJAhUn0MobCI+KRwn3IFBRAgiPigYGtyBQYQIIjwoHB9cgUHUCCI+qRwj/IFA9AgiP6sUEjyCQDAGERzKhwlEIVIYAwqMyocARCKRHAOGRXszwGAJlE0B4lB0B2odAwgQQHgkHD9chUBIBhEdJ4GkWAnUggPCoQxTpAwSKJYDwKJY3rUGgVgQQHrUKJ52BQCEEEB6FYKYRCNSTAMKjnnGlVxAYJAGExyDpUjcEak4A4VHzANM9CAyAAMJjAFCpEgJNIYDwaEqk6ScE8iOA8MiPJTVBoHEEEB6NCzkdhkDfBBAefSOkAgg0lwDCo7mxp+cQiCWA8IglRzkIQICPSzIGIAABMwGEhxkZBSAAAUeAFQ/GAgQgYCWA8LASwx4CEJgngPBgMEAAAlYCCA8rMewhAAGEB2MAAhCIJoDwiEZHQQhAgBUPxgAEIGAlgPCwEsMeAhBgxYMxAAEIRBNAeESjoyAEIMCKB2MAAhCwEkB4WIlhDwEIsOLBGIAABKIJIDyi0VEQAhBgxYMxAAEIWAkgPKzEsIcABFjxYAxAAALRBBAe0egoCAEIsOLBGIAABKwEEB5WYthDAAKseDAGIACBaAIIj2h0FIQABFjxYAxAAAJWAggPKzHsIQABVjwYAxCAQDQBhEc0OgpCAAKseDAGIAABKwGEh5UY9hCAACsejAEIQCCaAMIjGh0FIQABVjwYAxCAgJUAwsNKDHsIQIAVD8YABCAQTQDhEY2OghCAACsejAEIQMBKAOFhJYY9BCDAigdjAAIQiCaA8IhGR0EIQIAVD8YABCBgJYDwsBLDHgIQYMWDMQABCEQTQHhEo6MgBCDAigdjAAIQsBJAeFiJYQ8BCLDiwRiAAASiCSA8otFREAIQYMWDMQABCFgJIDysxLCHAARY8WAMQAAC0QQQHtHoKAgBCLDiwRiAAASsBBAeVmLYQwACrHgwBiAAgWgCCI9odBSEAARY8WAMQAACVgIIDysx7CEAAVY8GAMQgEA0AYRHNDoKQgACrHgwBiAAASsBhIeVGPYQgAArHowBCEAgmgDCIxodBSEAAVY8GAMQgICVAMLDSgx7CECAFQ/GAAQgEE0A4RGNjoIQgAArHowBCEDASgDhYSWGPQQgwIoHYwACEIgmgPCIRkdBCECAFQ/GAAQgYCWA8LASwx4CEGDFgzEAAQhEE0B4RKOrb8EbReS/icitIvJbIvIpEfkvEfk3EXlLRP6niLxb3+7TMwMBVjwMsDCFAARaBBAeDIR5AutE5AUR0f8u78JlRkSmROTBi/8FYXMJIDyaG3t6DoFYAgiPWHI1K/dVEfkfEX367yLy1xHlKFIPAgiPesSRXkCgSAIIjyJpV7QtFR17RGRphH+nRWQL4iOCXD2KIDzqEUd6AYEiCSA8iqRdwbZ0W+Wfc/Drf2fbJQeK6VWB8EgvZngMgbIJIDzKjkDJ7b8tIjfl4MM7InJzDvVQRVoEEB5pxQtvIVAFAgiPKkShJB/06ZW/63GQNNQ1PXD6uzztEoqrNnYIj9qEko5AoDACCI/CUFevoRdF5P4c3XpJRB7IsT6qqj4BhEf1Y4SHEKgaAYRH1SJSoD//KiL/W47t/d8i8pkc66Oq6hNAeFQ/RngIgaoRQHhULSIF+nP24svB8mpSXzK2JK/KqCcJAgiPJMKEkxCoFAGER6XCUawzGvy8fxblXSH1VZoAwqPS4cE5CFSSAMKjkmEpxilWPIrhXOdWEB51ji59g8BgCCA8BsM1iVo545FEmCrtJMKj0uHBOQhUkgDCo5JhKcYpnmophnOdW0F41Dm69A0CgyGA8BgM1yRq5T0eSYSp0k4iPCodHpyDQCUJIDwqGZbinOLNpcWxrmNLCI86RpU+QWCwBBAeg+Vb+dr5VkvlQ1RpBxEelQ4PzkGgkgQQHpUMS7FO8XXaYnnXqTWER52iSV8gUAwBhEcxnCvfioqP/xHh5X8Xkb+OKEeRehBAeNQjjvQCAkUSQHgUSbvibem2ywsiov9d3sVX/SDclIg8ePG/Fe8W7g2QAMJjgHCpGgI1JYDwqGlg++mWPu3y30TkVhH5rYuvVdfXof+biLwlIv+Tr9D2g7dWZREetQonnYFAIQQQHoVgTrsRJpe04zdI7xkbg6RL3RCoJwGERz3jmmuvmFxyxVmryhgbtQonnYFAIQQQHoVgTrsRJpe04zdI7xkbg6RL3RCoJwGERz3jmmuvmFxyxVmryhgbtQonnYFAIQQQHoVgTrsRJpe04zdI7xkbg6RL3RCoJwGERz3jmmuvmFxyxVmryhgbtQonnYFAIQQQHoVgTrsRJpe04zdI7xkbg6RL3RCoJwGERz3jmmuvmFxyxVmryhgbtQonnYFAIQQQHoVgTrsRJpe04zdI7xkbg6RL3RCoJwGERz3jmmuvmFxyxVmryhgbtQonnYFAIQQQHoVgTrsRJpe04zdI7xkbg6RL3RCoJwGERz3jmmuvmFxyxVmryhgbtQonnYFAIQQQHoVgTrsRJpe04zdI7xkbg6RL3RCoJwGERz3jmmuvmFxyxVmryhgbtQonnYFAIQQQHoVgTrsRJpe04zdI7xkbg6RL3RCoJwGERz3jmmuvmFxyxVmryhgbtQonnYFAIQQQHoVgTrsRJpe04zdI7xkbg6RL3RCoJwGERz3jmmuvmFxyxVmryhgbtQonnYFAIQQQHoVgTrsRJpe04zdI7xkbg6RL3RCoJwGERz3jmmuvmFxyxVmryhgbtQonnYFAIQQQHoVgTrsRJpe04zdI7xkbg6RL3RCoJwGERz3jmmuvmFxyxVmryhgbtQonnYFAIQQQHoVgTrsRJpe04zdI7xkbg6RL3RCoJwGERz3jmmuvmFxyxVmryhgbtQonnYFAIQQQHoVgTrsRJpe04zdI7xkbg6RL3RCoJwGERz3jmmuvmFxyxVmryhgbtQonnYFAIQQQHoVgTrsRJpe04zdI7xkbg6RL3RCoJwGERz3jmmuvmFxyxVmryhgbtQonnYFAIQQQHoVgTrsRJpe04zdI7xkbg6RL3RCoJwGERz3jmmuvmFxyxVmryhgbtQonnYFAIQQQHoVgTrsRJpe04zdI7xkbg6RL3RCoJwGERz3jmmuvmFxyxVmryhgbtQonnYFAIQQQHoVgTrsRJpe04zdI7xkbg6RL3RCoJwGERz3jmmuvmFxyxVmryhgbtQonnYFAIQQQHoVgTrsRJpe04zdI7xkbg6RL3RCoJwGERz3jmmuvmFxyxVmryhgbtQonnYFAIQQQHoVgTrsRJpe04zdI7xkbg6RL3RCoJwGERz3jmmuvmFxyxVmryhgbtQonnYFAIQQQHoVgTrsRJpe04zdI7xkbg6RL3RCoJwGERz3jmmuvmFxyxVmryhgbtQonnYFAIQQQHoVgTrsRJpe04zdI7xkbg6RL3RCoJwGERz3jmmuvmFxyxVmryhgbtQonnYFAIQQQHoVgTrsRJpe04zdI7xkbg6RL3RCoJwGERz3jmmuvmFxyxVmryhgbtQonnYFAIQQQHoVgTrsRJpe04zdI7xkbg6RL3RCoJwGERz3jmmuvmFxyxVmryhgbtQonnYFAIQQQHoVgTrsRJpe04zdI7xkbg6RL3RCoJwGERz3jmmuvmFxyxVmryhgbtQonnYFAIQQQHoVgTrsRJpe04zdI7xkbg6RL3RCoJwGERz3jmmuvmFxyxVmryhgbtQonnYFAIQQQHoVgTrsRJpe04zdI7xkbg6RL3RCoJwGERz3jmmuvmFxyxVmryhgbtQonnYFAIQQQHoVgTrsRJpe04zdI7xkbg6RL3RCoJwGERz3jmmuvmFxyxVmryhgbtQonnYFAIQQQHoVgTrsRJpe04zdI7xkbg6RL3RCoJwGERz3jmmuvmFxyxVmryhgbtQonnYFAIQQQHoVgTquRr4vIEyLyLRHZLSJuctkqIn8qIo+KyF+k1SW8HRABhMeAwFItBGpMAOFR4+DGdm25iEyLyCkRmRWRURE5LiLDIrJMREZEZCa2csrVigDCo1bhpDMQKIQAwqMQzOk1oisbj4jI4osiQ8XIORF5VkT+OL3u4PGACCA8BgSWaiFQYwIIjxoHt5+uqdD4DxH5lFfJf4nIb7Da0Q/W2pVFeNQupHQIAgMngPAYOOJ0G9BVDz3vcYWIfHLxXAerHenGcxCeIzwGQZU6IVBvAgiPese3r975qx6sdvSFsraFER61DS0dg8DACCA8Boa2HhW7sx6c7ahHPPPuBcIjb6LUB4H6E0B41D/GffVQVz1eFZG7OdvRF8e6FkZ41DWy9AsCgyOA8MiJ7ZqhoaFNK1euHJuZmVk9Ozu7JKd6qSZnAsPDw2eXL19+9MSJE5Nzc3P7RORIzk00qTqER3/RJm/0x6+w0uSNXFEjPPrFuWzZsu+eO3fu7i1btizauHHjFevWrZMVK1b0Wy3lB0Tg5MmTMjU1JQcOHPhkz5495xcvXvzqqVOn7htQc3WvFuERGWHyRiS4koqRN3IFj/DoA+enR0ZGfrRhw4ZrJyYmliI2+iBZUlFNJuPj46cPHjz4wfT09JdE5BcluZJqswgPe+TIG3ZmlSpB3ug7HAiPWIQjIyM/Hx8fX7t9+/bYKihXEQI7d+6UiYmJw9PT05+riEupuIHwMEaKvGEEVmFz8kZ0cBAeMeh0mXRsbGzT3r17l8aUp0z1CGzevPn05OTkPrZdTLFBeBhwkTcMsBIxJW9EBQrhEYFtzZIlS3567NixYbZXIuhVtIgun65atWr27Nmzn+fAaXCQEB7BqIS8Ec4qGUvyRlSoEB5WbENDQzu3bt36zV27dukbPfmpEYFt27Z9snv37qfn5ubYPwuLK8IjjJOQNwJBJWhG3jAHDeFhRaZ7tJOTk2vXr19vLYp9xQkcOnRIxsbGOOsRHieERyAr8kYgqATNyBvmoCE8rMiGh4fPHD9+fAnbLFZy1bfXZdPR0dGzs7OzV1bf20p4iPAIDAN5IxBUgmbkDXPQEB5mZCLnz59XbvzUkcCiRYu0W61/8dOTAMKjJ6J5A/JGOKvkLMkbppAhPEy4LhiTQCKgpVKEBGKKFMIjHBd5I5xVcpbkDVPIEB4mXAiPCFxpFSGBmOKF8AjHhfAIZ5WcJXnDFDKEhwkXwiMCV1pFSCCmeCE8wnEhPMJZJWdJ3jCFDOFhwoXwiMCVVhESiCleCI9wXAiPcFbJWZI3TCFDeJhwITwicKVVhARiihfCIxwXwiOcVXKW5A1TyBAeJlwIjwhcaRUhgZjihfAIx4XwCGeVnCV5wxQyhIcJF8IjAldaRUggpnghPMJxITzCWSVnSd4whQzhYcKF8IjAlVYREogpXgiPcFwIj3BWl1m+++678uSTT8rrr78uIyMjfdQ0mKLkDRNXhIcJV0nCQy+6m266qdX6unXr5I033pA1a9ZEuE6RXgRIIL0ILfg9wiMcV0/hMT09LXfeeaesXr1annvuObnyygsv0D1y5Ijcfvvt8oUvfGHB34c3fcFSJ+233367rzqsbeZlj/DIi2Ql6kF4RIShZwKJqLNnkapfeD07kIgBwsMUKIRHOK6eeUOFx4MPPii//OUvZceOHXLjjTe2atc7/Z/97Gein2nwBUl40+kLD2tfi7Ynb5iIIzxMuC4Y90wgEXX2LJIVHnoX9NBDD+lHzeTee+9tlX/iiSfk0Ucfna9L73Duuuuu+T/feuutrbse/dE7q9tuu01eeuml1p91FeXaa6+Vhx9+WF5++eXW37322mstO/1xd11TU1ML2nJ3aW+99Vbr79UXlxyzPrr2s0ulWT/feeed+aTbE0zOBiQQE1CERziunnnDCY877rhD9Hr/zne+Ix988IF873vfk8985jPy3nvvzV9b2evOv2baXatf+cpXWqsm7vp116Je/zMzM/Lxxx+3rnu95vXHzxt+3SqCsvYuR/go/GvazwnOb5d71B//91pHuxXejz76aMFWS7f+Z33MrhJ3Kxubi8gb4ReCzqH6WQr9LgUJJJxbzwQSXlW4ZTvhoYlEhYeKDXcx6f/rnZLaP/DAA/PbMn55Jzz8Jd0zZ860RMc111wzX5/efT3++OPzgmTTpk2tutV23759on/WZKg/+vfOB/17TUYuATof2/XWr0uXlvXC17rL2sslgYSPSfKGjVWvbzw54aHX3Jtvvilf/OIX5ejRo62tF/2v2ybRVvVavfnmmxdcZy+++KJcf/31rd+1u1b3799/2VaLTtKTk5PzeaLX9Zi1b0cgm6u0zIcfftgSTadPn16wnZTtSzZvaQ5Rn371q1/NC4+lS5d27L/moayP/haTa9/PUcr7hRdeEBU37v/15kjbPnz4sGzcuLFnoMkbPRH5BggPE64LxpURHrri8fzzz7fOezjh4BKOXnz641ZA2gkPJ1LUzq1OuPr077SO6667Tr785S+3koW7WLsx89ttV2cv3jFletVp+T0JxEKLGxYDrZ55wxceWu9jjz3WEv268uGLBl0F8a99d63qf++///6O12q7Mx7ZPJHtT/Z67GXv++Jyj1/H1Vdf3fLPzz2+X88+++yCvOX88fOXCoRO/dd62+U+vZlR4aM3Sv4hVT9valv+zZohtkLesNBixcNE66JxzwQSU2mvMp22WroJDxUNbhk0RHj4S7HOH7fdkl2+zS6/6p60+3FbPqEiIlt3mQdoSSC9RuKC37NSGo6rZ97whYfb9nQ3Ev7krMLDvzNXF/T377//fmtC73SthgqPbtdjqPDwc4/fr3bCQ3OTEwYqPPyynYRHt/73Eh7uoL4fOpfP/K2WTlvD7UJO3gi/ENhqMbGaN+6ZQOKq7V4qRnhojZYVj+zF3Mkj3xfdI3bLqLpVYl3xcElOl4l1mTRUrAyCsdZJAjGRRXiE4+qZN/wJOvvUWlZ4dLvj913yr9Uf/OAHbbda/DzR63oMFR7ZOp2/VVjxcCLHPTXUKYQhfXVlyRvhFwLCw8QqLeHRbp9V/84/XOovd2bPeGhv3R6n3iHoUu8999zTgpAVHi7JZOsIERFZm+web1yI4kuRQEzsEB7huHITHtqkfx7LFwtr167teK3qeYXsuzCyk2uv6zFkMs5ew+3OeLjcE3I2zSF2vrszHu48WlYsdVvxyJ7xcPnMD6P/NJEvoLqFmrwRfiEgPEysyhMe7U55qzfdznjo7/UCdFsguv2RPeDlCw+1d8LBPdXitjyyT7v4WyH+sqz+/ejoaOudI27JN3tn1g657+ctt9zSMvHPmsSFKa4UCcTEDeFxCdfXReSvRGSmA8HchIfeqXd6MqPTNeyfA9Pr23+qJTu5drseQ4SH1tfrqRb3FJza+k/PZcu6XGN9qsXvk7+V046dY6Ft+NvN2adtEB6m3NDNmMOlESh7JpCIOgdexN8DHnhjCTeA8DAFD+FxCddpEfk1EXn64j9ZAZJk3jCNhgDj7ApHQJEkTMgbpjAhPEy4LhgnkUC6vV8jos+NKUICMYUa4XEJ18MislOPCV38Rx/PUBHiBEgSecMU/QhjhEcEtPoVQXhExJQEEgEtlSIID1OkEB4LcX0kIu5DImcyAuTjXu/xMJHHuFIEyBumcCA8TLgSWvGI6BdFLj3VAgsIxBKYE5Ehr/CsiOwXkTsQHrFIq18O4WGKEcLDhAvhEYErrSIkEFO8WPFgxcM0YOpqTN4wRRbhYcI1AOHh73n++Mc/bvvynAgfg4v08/G5fsoGO+gZuncZ3HffffLnf/7nrdcc5/2JbBKIKTIIj0u4xkXkqSLPeFT9a7Mhj9N3Gm39lDWN4JyMyRsmkAgPE64BCA99/E1fjfy1r32t9X0G99Y+/xFa38fso2cR/i8o0o94CC2bV4LU9lSc6QevQl92ZuVDAjERQ3hcwlX4Uy15XVemiBuM+xEPoWWrwoC8YRgYfCTOBMsZ53q41BceP/nJT1ofhHIfecu+7CfK2woUyis5OOGh36PQN6Y+8sgj0uvtg9buk0BMxBAel3D1/R4PE/mL78pwH47L+zqw+lKWfV65pV//yRsmgqx4mHANYMWjU/u9VhO6fb7ZfwGQ1u9ehOM+LqVfi9W/0xfnuBd8ua/BurcM6tcw9SU/+gKfvXv3yne/+93WZ7P9l4d1+mKu+/S2vrSs0+e49fXNnT693e6z3u7V7xHxMhUhgZhwITzCceVyw9Lp2u72UrF2LmZfNOavpHa7/rJ5x718S9vQ70K5z93rn//sz/6s9WE29zJAS27Jrni086lTbsm+CMx9O0p9GtRrBsgb4RcCby41sZo3ziWB9Gq6m/DQi7DT55uzn5XPfuNB38znf6a+26vV9fxE9hPT/psL/bLuNcYhn+Pu9untbvUUcVdHAuk1Mhf8HuERjqvvvNHt2u72uffsOajspw26fZzOv1b1y67+11vbfXhSV2xVbOi12u7Ltu6zDb1yi182+8E83yf/q70uPxw4cED01fH6ttZ2r1P3P0L3yiuvtMRSv2fFyBvhFwLCw8SqeOHR7iuKemeiF3e7zze7hHLzzTfPf5W218el2gkP7albYcguZfp/9j8x7e54VHi4L+I6Yr2WQ9t9NrtdPXHhspUigZh4ITzCcfUlPHpd290+9+6+PeJcbXd+Qm8odEL+8pfi/fm6AAAgAElEQVS/3Lp+211/7b6B4raD3fXvf4ahnfAIzS1udVZXS9yH5WJyi89NBYb/jZvw0PW2JG/0ZuRZsNViwnXBuK8EEtqeZavFLXdmVwu0raKEh94xWD7H3e3T253qCWXXjx0JxEQP4RGOq6+84SZQt6KYvbZVeHT73LvvZvb6cr9z2y2drj8nTtyNRbsVj0EID3/lwm3j+p+xz55zyW4jaf9c37JbLXkd1idvhF8IrHiYWBW/4hF6uNTdiehhS1X0Zax4ZJcqu32Ou9ent/2w9BJgcSHsXIoEYiKK8AjHlYvw6HRtq/AI/dx7dqu2Wxc6fYlayxQpPDrlBD0r5guP7DZSu5Wibis/4eFcaEneMJFjxcOEqyIrHnrB60+7zzf7Kxxqo0JEf3Tf1V++1LuIbPJw+6769zFbLbrfes8991xWb/Zz3N0+va3Lqp3q6XcfNiTWJJAQSpdE+MX3VpgKNdS4L+GhzLpd290+957daslOzlq3XpN6neqqSeh1rDc87syG1qErIYNY8eiWE7K5JSs03AqHrhTpVouKM/3/dmdQ+hmX5A0TPYSHCVfBwqPTGY8bbrih4+eb/WVGfQJFPzO/fPnyjp+pz+uMh9vm0Sdf9Md/+sX3yf8c944dO1q26qP+6H6uO0jWrp6IWJmLkEBMyFjxCMfVt/Bod21//PHH84c5s9sI7lprJ9iz2xHueu11/flP1ejTIh9++GGrfSd8BiE8uvnULrc4AeXy0OjoqHz1q19tCaPsU0FuyyY8jO0tyRsmgggPE64ChUeEX22LZPdl86q3rvWQQEyRRXiE4+pbeIQ3VYylrsC8//7786ujxbRazVbIG6a4IDxMuBIQHmW+AyOCZeWKkEBMIUF4hONKXngM6h0Y4Qira0neMMUG4WHClYDwiOgPRTwCJBDTcEB4hONKXniEd7V5luQNU8wRHiZcCI8IXGkVIYGY4oXwCMeF8AhnlZwlecMUMoSHCRfCIwJXWkVIIKZ4ITzCcSE8wlklZ0neMIUM4WHChfCIwJVWERKIKV4Ij3BcCI9wVslZkjdMIUN4mHAhPCJwpVWEBGKKF8IjHBfCI5xVcpbkDVPIEB4mXAiPCFxpFSGBmOKF8AjHhfAIZ5WcJXnDFDKEhwkXwiMCV1pFSCCmeCE8wnEhPMJZJWdJ3jCFDOFhwoXwiMCVVhESiCleCI9wXAiPcFbJWZI3TCFDeJhwicjw8PCZ48ePL1mxYoW1KPYVJ3Dy5EkZHR09Ozs7e2XFXa2KewiPwEiQNwJBJWhG3jAHDeFhRTYyMvLzycnJtevXr7cWxb7iBA4dOiRjY2OHp6enP1dxV6viHsIjMBLkjUBQCZqRN8xBQ3hYkQ0NDe3cunXrN3ft2nWFtSz21Sawbdu2T3bv3v303Nzc9mp7WhnvEB6BoSBvBIJK0Iy8YQ4awsOMTGTNkiVLfnrs2LFhtlsi6FW0iC6Xrlq1avbs2bOf16+EV9TNqrmF8AiPCHkjnFUyluSNqFAhPGKwLVu27LtjY2Ob9u7duzSmPGWqR2Dz5s2nJycn9506deq+6nlXWY8QHobQkDcMsBIxJW9EBQrhEYVNRHTPdnx8fO327azKxzKsSrmdO3fKxMQEZzvsAUF4GJmRN4zAKmxO3ogODsIjGp3Ip0dGRn60YcOGaycmJpay7dIHyZKK6jLp+Pj46YMHD34wPT39JRH5RUmupNoswsMeOfKGnVmlSpA3+g4HwqNfhLp8eu7cubu3bNmyaOPGjVesW7dOECH9Uh1ceU0aU1NTcuDAgU/27NlzfvHixa+yvRLNG+ERiY68EQmupGLkjVzBIzxywrlmaGho08qVK8dmZmZWz87OLsmpXqrJmcDw8PDZ5cuXHz1x4sTk3NzcPg6S9gUY4dEXPiFv9MevsNLkjVxRIzxyxUllEGgWAYRHs+Jt6S1jw0KrWbYIj2bFm95CIFcCTC654qxVZYyNWoUz184gPHLFSWUQaBYBJpdmxdvSW8aGhVazbBEezYo3vYVArgSYXHLFWavKGBu1CmeunUF45IqTyiDQLAJMLs2Kt6W3jA0LrWbZIjyaFW96C4FcCTC55IqzVpUxNmoVzlw7g/DIFSeVQaBZBJhcmhVvS28ZGxZazbJFeDQr3vQWArkSYHLJFWetKmNs1CqcuXYG4ZErTiqDQLMIMLk0K96W3jI2LLSaZYvwaFa86S0EciXA5JIrzlpVxtioVThz7QzCI1ecVAaBZhFgcmlWvC29ZWxYaDXLFuHRrHjTWwjkSoDJJVectaqMsVGrcObaGYRHrjipDALNIsDk0qx4W3rL2LDQapYtwqNZ8aa3EMiVAJNLrjhrVRljo1bhzLUzCI9ccVIZBJpFgMmlWfG29JaxYaHVLFuER7PiTW8hkCsBJpdccdaqMsZGrcKZa2cQHrnipDIINIsAk0uz4m3pLWPDQqtZtgiPZsWb3kIgVwJMLrnirFVljI1ahTPXziA8csVJZRBoFgEml2bF29JbxoaFVrNsER7Nije9hUCuBJhccsVZq8oYG7UKZ66dQXjkipPKINAsAkwuzYq3pbeMDQutZtkiPJoVb3oLgVwJMLnkirNWlTE2ahXOXDuD8MgVJ5VBoFkEmFyaFW9LbxkbFlrNskV4NCve9BYCuRJgcskVZ60qY2zUKpy5dgbhkSvOelb2f4nI/1HPrtGrPgn8loj8W591ULyeBP4/Efk/69k1etUnAYRHnwCbUFwHyf/ShI7SRzOB/5exYWbWpAKI0iZFO7yvCI9wVo21ZMm0saHv2XHGRk9EGEAAAhkCCA+GRE8CTC49ETXWgLHR2NDTcQhEE0B4RKNrTkEml+bE2tpTxoaVGPYQgADCgzHQkwCTS09EjTVgbDQ29HQcAtEEEB7R6JpTkMmlObG29pSxYSWGPQQggPBgDPQkwOTSE1FjDRgbjQ09HYdANAGERzS65hRkcmlOrK09ZWxYiWEPAQggPBgDPQkwufRE1FgDxkZjQ0/HIRBNAOERja45BZlcmhNra08ZG1Zi2EMAAggPxkBPAkwuPRE11oCx0djQ03EIRBNAeESja05BJpfmxNraU8aGlRj2EIAAwoMx0JMAk0tPRI01YGw0NvR0HALRBBAe0eiaU5DJpTmxtvaUsWElhj0EIIDwYAz0JMDk0hNRYw0YG40NPR2HQDQBhEc0uuYUZHJpTqytPWVsWIlhDwEIIDwYAz0JMLn0RNRYA8ZGY0NPxyEQTQDhEY2uOQWZXJoTa2tPGRtWYthDAAIID8ZATwJMLj0RNdaAsdHY0NNxCEQTQHhEo2tOQSaX5sTa2lPGhpUY9hCAAMKDMdCTAJNLT0SNNWBsNDb0dBwC0QQQHtHo6lvw6yLyhIh8S0R2i4ibXLaKyJ+KyKMi8hf17T49MxBAeBhgYQoBCLQIIDwYCJcRWC4i0yJySkRmRWRURI6LyLCILBORERGZgRsEPFEKDAhAAAKhBBAeoaQaZqcrG4+IyOKLIkPFyDkReVZE/rhhLOhuZwKseDA6IAABKwGEh5VYQ+xVaPyHiHzK6+9/ichvsNrRkBEQ1k2ERxgnrCAAgUsEEB6Mho4EdNVDz3tcISKfXDzXwWoHA8YngPBgPEAAAlYCCA8rsQbZ+6serHY0KPCGriI8DLAwhQAEWgQQHgyErgTcWQ/OdjBQ2hFAeDAuIAABKwGEh5VYw+x11eNVEbmbsx0Ni3xYdxEeYZywggAELhFAeOQ0GtYMDQ1tWrly5djMzMzq2dnZJTnVSzU5ExgeHj67fPnyoydOnJicm5vbJyJHcm6iSdUhPPqLNnmjP36FlSZv5Ioa4dEvzmXLln333Llzd2/ZsmXRxo0br1i3bp2sWLGi32opPyACJ0+elKmpKTlw4MAne/bsOb948eJXT506dd+Amqt7tQiPyAiTNyLBlVSMvJEreIRHHzg/PTIy8qMNGzZcOzExsRSx0QfJkopqMhkfHz998ODBD6anp78kIr8oyZVUm0V42CNH3rAzq1QJ8kbf4UB4xCIcGRn5+fj4+Nrt27fHVkG5ihDYuXOnTExMHJ6env5cRVxKxQ2EhzFS5A0jsAqbkzeig4PwiEGny6RjY2Ob9u7duzSmPGWqR2Dz5s2nJycn97HtYooNwsOAi7xhgJWIKXkjKlAIjwhsa5YsWfLTY8eODbO9EkGvokV0+XTVqlWzZ8+e/TwHToODhPAIRiXkjXBWyViSN6JChfCwYhsaGtq5devWb+7atUvf6MlPjQhs27btk927dz89NzfH/llYXBEeYZyEvBEIKkEz8oY5aAgPKzLdo52cnFy7fv16a1HsK07g0KFDMjY2xlmP8DghPAJZkTcCQSVoRt4wBw3hYUU2PDx85vjx40vYZrGSq769LpuOjo6enZ2dvbL63lbCQ4RHYBjIG4GgEjQjb5iDhvAwIxM5f/68cuOnjgQWLVqk3Wr9i5+eBBAePRHNG5A3wlklZ0neMIUM4WHCdcGYBBIBLZUiJBBTpBAe4bjIG+GskrMkb5hChvAw4UJ4ROBKqwgJxBQvhEc4LoRHOKvkLMkbppAhPEy4EB4RuNIqQgIxxQvhEY4L4RHOKjlL8oYpZAgPEy6ERwSutIqQQEzxQniE40J4hLNKzpK8YQoZwsOEC+ERgSutIiQQU7wQHuG4EB7hrJKzJG+YQobwMOFCeETgSqsICcQUL4RHOC6ERzir5CzJG6aQITxMuBAeEbjSKkICMcUL4RGOC+ERzio5S/KGKWQIDxMuhEcErrSKkEBM8UJ4hONqrPA4cuSIPPTQQ/L888/LmjVr5Mknn2xRe/TRR8Pp9Wl55swZefjhh+Xmm2+WO++8s8/aLi9O3jAhRXiYcJUkPN5991256aabWq2vW7dO3njjjdYFzE/+BEggJqYIj3BcUcLj9ddfl7vuukveeecdufHGG+db08l7x44dl/19uDsi09PTrUlYBYBft6WOENsY4ZG3bwiPkEgVZoPwiEAdlUAi2llQRMWHJhtNRCMjI/1WR/kOBBAepqGB8AjHFZU39Hr/67/+69YNx3e+8x258sorRSfyxx57TA4fPiwvvvhitGjIe3LvhCIrPEKQ5e0bwiOEemE2CI8I1FEJJKKdrsLDXcxjY2Ny7733tmyfeOKJBcuX7m7JVXTrrbe2hIv+6J3ObbfdJi+99FLrz7qKcu2117aWI19++eXW37322mvzy5La3u233y5TU1ML2nIJ4q233mr9vfry3HPPzSdIXWJ1Prr2s8Ip62f27q5fdpbyCA8LLUF4hOOKyht6bbz//vutVr74xS+2RIbegHz+85+XPXv2LFit8K8j/zrUsm6FRP/frZq++eabrVUT96PX+w033NDaFvGv2b/8y7+UP/qjP5LYa7zXikeob5qz2tl2Wv3N5qZsTvNXkjvlptDwkjdCSbXsEB4mXBeMoxJIRDsLimRXPJwQ0AShS6XZOwS1f+CBB+a3ZfzyTnisXr16XiS4O4Jrrrlmvr4HH3xQHn/88XlBsmnTplbiU9t9+/aJ/vm9995r+al/73zQv9ckkfWxHQO/Lr2b0+SpdZe1skMCMY1UhEc4rqi84YTHV77yFfne977XEgWvvvqq3H333fKHf/iH88Ijmx90gv7www9b17deo3pNuRsCtdWftWvXXrbV0u6adfax13g34aF1h/qm+WX//v1yzz33tPz3+6i5w//J5rPsikc2PzrOsedOyBvhFwLCw8Rq3jgqgcQ1dalUO+HhH9hyF5YTB9kDXO2Eh7+32245VOu47rrr5Mtf/nIrQTlB0a0vfrsxS6wxZfpl65cngZhoIjzCcUXlDX9C1GvrZz/7WWv1ISsaste7fx395Cc/aSvm221nhFx/1mu8m/DodKMRstXSbfs522ZWeLTjpTdZL7zwQtRWNnkj/EJAeJhYpSc8VDS4E9whwsPfSnG9ddst2a0WfzvEX/7Ucm7LJySJqX227jIP0JJATBcFwiMcV9/Cw18dOH369ILVCneT4K53nbjdiqV7ksRtq7htmGwd7lr0b2hc9/q5xi1bLd18U1/87RH9c6ctEm3TFxLthIe/zdStrpAQkzdCKF2aQ/UL4PoJcBJIOLeoBBJefXvLIlY8QhW/74ueEXFLurrcGXM3pILHHZILFSv98uxUngRiIkveCMcVlTc6bQFkVwS6rXj4ZyD8CditZIasfPZ7jYc8TtvLt27bx9lzYyErHv6NWXgY21uSN0wEOeNhwnXBOCqBRLSzoIhVeLTb89W/8w+X+gknuyfq7n705Lw+yuvvrWaFh9pqXdk6QkRE1iabXPrlZi1PAjERQ3iE44rKG6HCI3vd+OcffvjDH7a2ZlSA+JO7Hi7Pvtui05Zrnte4L5IOHDgQ7Fs2p3U7D5Zd4XCrqt/4xjdaK0Xt8swrr7zSOnAf89QgeSP8QmCrxcTq0jLR+fOab4v7afceD2292xkP/b2/PKrbH+6upd0Sq9q7i9U91eK2PLJPu/hbIf42if796OhoS6ioEAkRHlk/b7nllhZY97Kh4ihfaIkEYiKO8LiE6+si8lciMtOB4ECFh7bZ6amW7PaE//Sb/zv/qRb/+uv3Gu91uNS9o0j70M03J5RcftKV0pMnT3Y8iO77fccdd7TCsmHDhgXbz53aNl0F5A0rLlY8rMTKWvGI8HNBkX5PbffbfirlER6mSCE8LuE6LSK/JiJPX/wnK0CihIcpGhiXRoC8YUKP8DDhumCcRALp9n6NiD43pggJxBRqhMclXA+LyE69+b34z7MZAZJE3jBFH+N5AuQN02BAeJhwJSQ8IvpFEZZMrWMA4bGQ2Eci4l4rfCYjQD4ueovWGkzs4wkgPEzsEB4mXAiPCFxpFbmYQNJyGm+rRGBORIY8h2ZFZL+I3IHwqFKY8vUF4WHiifAw4UJ4ROBKqwgJxBQvVjxY8TANmLoakzdMkUV4mHBVRHj4z/D/+Mc/br1ddBCfeo5gE1xED7u+/fbbct9998mf//mfR78xMLjBQEMSSCCoi9fCxe0EU6GaGo+LyFOc8ahpdHt0i7xhijvCw4SrIsJDH3vVr1N+7WtfE/3QU1Z4ZD+6pm6X+eG1doz1MT4VTfoNitAXl0XEylyEBGJCxorHJVw81WIaOvUyJm+Y4onwMOGqoPDQ7zDox97cx9v0hUD64z4Ipf+vKyTf/va35amnnop6OU4Eo55FnPC4//77W1/IfeSRR1pftC37hwRiigDC4xKugbzHwxQNjEsjQN4woUd4mHBVRHh08rnbR5NcGfcyn3afvfbfZOp/+8Fti1x11VXyzDPPtKryV1Cyj+76v8t+h8V/QVAE+4EXIYGYECM8wnFV/nHa7Eqp+w7KRx991HpZITmjc7DJG+EXAm8uNbGaN65sAsl+r6Fd99p99rrdlyCzwuOuu+6aFxu+wFm6dOmC1y67+vXbK9dff33rd+6LubpFpJ/A1j9XYXWjHR8SiOmiQHiE46ps3tAudPsOigoPfUuoCg/32XhyxsLAkzfCLwSEh4lVGsLDP+/h38Fk7178VyKHJBE9COq2b3z7q6++esGr25WSE0C6jaKHXlVopHL4lQRiuigQHuG4Ki08sjct/s2FW/EgZ7DiET7cu1qy1RIBsrIJpNOKR95JxH3TRQWFCo/s4VD/9ezZrZaqHXLNxh/hYboiEB7huCqbN9zNgn/TQs4ID6xakjdMvBAeJlwXjCubQDqd8cg7iYSueLhlWcc45AxKRDxyLUICMeFEeITjqmze8Fcp3TVLzggPLMLDxoqtFjOvagsPtxKhXvpPtfRKIr0+Ie0Ol7o6/T9rW3qO45prrpn/Iq3uB+sZD/0U9/79++Wee+5pgUN4xA24CpdCeIQHp9LCI3tt6uqp/p1e6+22WsgZCwPPDUv4hYDwMLGaN650AlEvO51OHxkZ6fipen9L5N577xV9gkU/c69nM7rVp+11eqrFJSf3GWut74033pA1a9bEkS+gFAnEBBnhEY6r8nlDxcaOHTtaPdKnzz788MPWDcwHH3xw2TkutSFnXAo+eSP8QkB4mFilIzziutW5VHbFI+/6q1QfCcQUDYRHOK7KCw+/K/45rfAuXrJsUs7QXpM3TKOEMx4mXBeMk0ogEf27rEiTkggJxDRiEB7huCqdN7Krlrrq6W/XhnfzgmWTcgbCwzo6BOFhRtZA4RHBKNkiCA9T6BAe4bgqLTzCu4FlOwLkDdO4QHiYcDV0xSOCUbJFSCCm0CE8wnEhPMJZJWdJ3jCFDOFhwoXwiMCVVhESiCleCI9wXAiPcFbJWZI3TCFDeJhwITwicKVVhARiihfCIxwXwiOcVXKW5A1TyBAeJlwIjwhcaRUhgZjihfAIx4XwCGeVnCV5wxQyhIcJF8IjAldaRUggpnghPMJxITzCWSVnSd4whQzhYcKF8IjAlVYREogpXgiPcFwIj3BWyVmSN0whQ3iYcCE8InClVYQEYooXwiMcF8IjnFVyluQNU8gQHiZcIjI8PHzm+PHjS1asWGEtin3FCZw8eVJGR0fPzs7OXllxV6viHsIjMBLkjUBQCZqRN8xBQ3hYkY2MjPx8cnJy7fr1661Fsa84gUOHDsnY2Njh6enpz1Xc1aq4h/AIjAR5IxBUgmbkDXPQEB5WZENDQzu3bt36zV27dl1hLYt9tQls27btk927dz89Nze3vdqeVsY7hEdgKMgbgaASNCNvmIOG8DAjE1mzZMmSnx47dmyY7ZYIehUtosulq1atmj179uzn9cObFXWzam4hPMIjQt4IZ5WMJXkjKlQIjxhsy5Yt++7Y2NimvXv3Lo0pT5nqEdi8efPpycnJfadOnbqvet5V1iOEhyE05A0DrERMyRtRgUJ4RGETEd2zHR8fX7t9O6vysQyrUm7nzp0yMTHB2Q57QBAeRmbkDSOwCpuTN6KDg/CIRify6ZGRkR9t2LDh2omJiaVsu/RBsqSiukw6Pj5++uDBgx9MT09/SUR+UZIrqTaL8LBHjrxhZ1apEuSNvsOB8OgXoS6fnjt37u4tW7Ys2rhx4xXr1q0TREi/VAdXXpPG1NSUHDhw4JM9e/acX7x48atsr0TzRnhEoiNvRIIrqRh5I1fwCI+ccK4ZGhratHLlyrGZmZnVs7OzS3Kql2pyJjA8PHx2+fLlR0+cODE5Nze3j4OkfQFGePSFT8gb/fErrDR5I1fUCI9ccVIZBJpFAOHRrHhbesvYsNBqli3Co1nxprcQyJUAk0uuOGtVGWOjVuHMtTMIj1xxUhkEmkWAyaVZ8bb0lrFhodUsW4RHs+JNbyGQKwEml1xx1qoyxkatwplrZxAeueKkMgg0iwCTS7PibektY8NCq1m2CI9mxZveQiBXAkwuueKsVWWMjVqFM9fOIDxyxUllEGgWASaXZsXb0lvGhoVWs2wRHs2KN72FQK4EmFxyxVmryhgbtQpnrp1BeOSKk8og0CwCTC7Nirelt4wNC61m2SI8mhVveguBXAkwueSKs1aVMTZqFc5cO4PwyBUnlUGgWQSYXJoVb0tvGRsWWs2yRXg0K970FgK5EmByyRVnrSpjbNQqnLl2BuGRK04qg0CzCDC5NCvelt4yNiy0mmWL8GhWvOktBHIlwOSSK85aVcbYqFU4c+0MwiNXnFQGgWYRYHJpVrwtvWVsWGg1yxbh0ax401sI5EqAySVXnLWqjLFRq3Dm2hmER644qQwCzSLA5NKseFt6y9iw0GqWLcKjWfGmtxDIlQCTS644a1UZY6NW4cy1MwiPXHFSGQSaRYDJpVnxtvSWsWGh1SxbhEez4k1vIZArASaXXHHWqjLGRq3CmWtnEB654qQyCDSLAJNLs+Jt6S1jw0KrWbYIj2bFm95CIFcCTC654qxVZYyNWoUz184gPHLFSWUQaBYBJpdmxdvSW8aGhVazbBEezYo3vYVArgSYXHLFWavKGBu1CmeunUF45IqznpX9vYj8dj27Rq8gAIEBEfgHEfmdAdVNtWkTQHikHb9CvOfOpRDMSTbC2EgybDgNgVIJIDxKxZ9G40wuacSpDC8ZG2VQp00IpE0A4ZF2/ArxnsmlEMxJNsLYSDJsOA2BUgkgPErFn0bjTC5pxKkMLxkbZVCnTQikTQDhkXb8CvGeyaUQzEk2wthIMmw4DYFSCSA8SsWfRuNMLmnEqQwvGRtlUKdNCKRNAOGRdvwK8Z7JpRDMSTbC2EgybDgNgVIJIDxKxZ9G40wuacSpDC8ZG2VQp00IpE0A4ZF2/ArxnsmlEMxJNsLYSDJsOA2BUgkgPErFn0bjTC5pxKkMLxkbZVCnTQikTQDhkXb8CvGeyaUQzEk2wthIMmw4DYFSCSA8SsWfRuNMLmnEqQwvGRtlUKdNCKRNAOGRdvwK8Z7JpRDMSTbC2EgybDgNgVIJIDxKxZ9G40wuacSpDC8ZG2VQp00IpE0A4ZF2/ArxnsmlEMxJNsLYSDJsOA2BUgkgPErFn0bjTC5pxKkMLxkbZVCnTQikTQDhkXb8CvGeyaUQzEk2wthIMmw4DYFSCSA8SsWfRuNMLmnEqQwvGRtlUKdNCKRNAOGRdvwK8Z7JpRDMSTbC2EgybDgNgVIJIDxKxZ9G40wuacSpDC8ZG2VQp00IpE0A4ZF2/ArxnsmlEMxJNsLYSDJsOA2BUgkgPErFn0bjTC5pxKkMLxkbZVCnTQikTQDhkXb8CvGeyaUQzEk2wthIMmw4DYFSCSA8SsWfRuNMLmnEqQwvGRtlUKdNCKRNAOGRdvwK8Z7JpRDMSTbC2EgybDgNgVIJIDxKxZ9G40wuacSpDC8ZG2VQp00IpE0A4ZF2/Abi/ddF5AkR+ZaI7BYRN7lsFZE/FZFHReQvBtIylaZGAOGRWsTwFwLlE0B4lB+DynmwXESmReSUiMyKyKiIHBeRYRFZJiIjIjJTOa9xqAwCCI8yqNMmBNImgPBIO34D815XNh4RkcUXRfk3rT8AACAASURBVIaKkXMi8qyI/PHAWqXi1AggPFKLGP5CoHwCCI/yY1BJD1Ro/IeIfMrz7r9E5DdY7ahkvMpyCuFRFnnahUC6BBAe6cZu4J7rqoee97hCRD65eK6D1Y6BY0+qAYRHUuHCWQhUggDCoxJhqKYT/qoHqx3VjFHZXiE8yo4A7UMgPQIIj/RiVqjH7qwHZzsKxZ5MYwiPZEKFoxCoDAGER2VCUU1HdNXjVRG5m7Md1QxQyV4hPEoOAM1DIEECCI+cgrZmaGho08qVK8dmZmZWz87OLsmpXqrJmcDw8PDZ5cuXHz1x4sTk3NzcPhE5knMTTaoO4dFftMkb/fErrDR5I1fUCI9+cS5btuy7586du3vLli2LNm7ceMW6detkxYoV/VZL+QEROHnypExNTcmBAwc+2bNnz/nFixe/eurUqfsG1Fzdq0V4REaYvBEJrqRi5I1cwSM8+sD56ZGRkR9t2LDh2omJiaWIjT5IllRUk8n4+PjpgwcPfjA9Pf0lEflFSa6k2izCwx458oadWaVKkDf6DgfCIxbhyMjIz8fHx9du3749tgrKVYTAzp07ZWJi4vD09PTnKuJSKm4gPIyRIm8YgVXYnLwRHRyERww6XSYdGxvbtHfv3qUx5SlTPQKbN28+PTk5uY9tF1NsEB4GXOQNA6xETMkbUYFCeERgW7NkyZKfHjt2bJjtlQh6FS2iy6erVq2aPXv27Oc5cBocJIRHMCohb4SzSsaSvBEVKoSHFdvQ0NDOrVu3fnPXrl36Rk9+akRg27Ztn+zevfvpubk59s/C4orwCOMk5I1AUAmakTfMQUN4WJHpHu3k5OTa9evXW4tiX3EChw4dkrGxMc56hMcJ4RHIirwRCCpBM/KGOWgIDyuy4eHhM8ePH1/CNouVXPXtddl0dHT07Ozs7JXV97YSHiI8AsNA3ggElaAZecMcNISHGZnI+fPnlRs/dSSwaNEi7VbrX/z0JIDw6Ilo3oC8Ec4qOUvyhilkCA8TrgvGJJAIaKkUIYGYIoXwCMdF3ghnlZwlecMUMoSHCRfCIwJXWkVIIKZ4ITzCcSE8wlklZ0neMIUM4WHChfCIwJVWERKIKV4Ij3BcCI9wVslZkjdMIUN4mHAhPCJwpVWEBGKKF8IjHBfCI5xVcpbkDVPIEB4mXAiPCFxpFSGBmOKF8AjHhfAIZ5WcJXnDFDKEhwkXwiMCV1pFSCCmeCE8wnEhPMJZJWdJ3jCFDOFhwoXwiMCVVhESiCleCI9wXAiPcFbJWZI3TCFDeJhwITwicKVVhARiihfCIxwXwiOc1WWW7777rjz55JPy+uuvy8jISB81DaYoecPEFeFhwoXwiMCVVhESiCleCI9wXD2Fx/T0tNx5552yevVqee655+TKKy+8QPfIkSNy++23yxe+8IUFfx/e9AVLnbTffvvtvuqwtpmXPcIjL5KVqAfhERGGngkkok6KVIQAwsMUCIRHOK6eeUOFx4MPPii//OUvZceOHXLjjTe2atc7/Z/97Gein2nwBUl40+kLD2tfi7Ynb5iIIzxMuFjxiMCVVhESiCleCI9wXMHC44477hC9w//Od74jH3zwgXzve9+Tz3zmM/Lee+/NCw+3OvLWW2+1PHjnnXfmhYpbIZmammr97oknnpCvfOUrrVUT93e33nprawXkpZdekpmZGfn444/l5Zdfltdee61V5q677prvmV+3iqCsva7SZH+0blfHvffee5nft912W6tt9cf/vdajfb/ppptaVa5bt07eeOMN+eijjxZstXTrf9ZHV8eaNWtadXYr6/ud5dot1OSN8AtB3/6tn6XQ71KQQMK59Uwg4VVhWTUCJBBTRMgb4bh65g234vH444/Lm2++KV/84hfl6NGjra0X/a/bJtEmH374Ybn55ptbWzNOaLz44oty/fXXt363adOmlhA5c+aM7Nu3r/Xn/fv3X7bVopP05ORka3LXidm3160enYi1vDtbkbVv1/3stoiW+fDDD1vi4/Tp0wu2k7J90bIPPPDAvD/aN/XpV7/61bzwWLp0acf+a5+zPvpbTK595eHYKe8XXnihJW7c/+s5Em378OHDsnHjxp5RJm/0ROQbIDxMuC4Y90wgEXVSpCIESCCmQCA8wnH1zBu+8NBqH3vsMbn22mtbKx++aNBVkIceekief/75lljQH51s9ef+++9vTahuYvXda3fGw5V79NFH2/ZEJ1+/rV72vi+uTr+Oq6++uuWf/s5tJfl+Pfvssy0/sv74YkYFQqf+a7msj1pWxZMKH1018g+pqqhxQk3b9UVPeGj19p2PSxp4ITwMsJxpzwQSUSdFKkKABGIKBMIjHFfPvOELDxUc/sqFPzmr8PDvzNUF/f3777/fmrCzWy1uqyRUeGTL+1sVocLjuuuuawkM/fH71U54+MJAhYdf1uHNCo9u/e8lPNw2jh86n5HbInLbUSFP0ZA3wi8EtlpMrOaNeyYQa7VOdbulU2v5bvaDrDtPP6tSFwnEFAmERziunnnDn6DdSoarPis8ut3x+y75E/YPfvCDtlst/gqDv22jKxJ1XPFwqx/uqaFOIQwRWa4seSP8QkB4mFj1Fh7ZQ0taIntwql2TgxQHg6w7Dl+1S5FATPFBeITjyk14aJO6GnLNNdcsWOHQMx5r165tbcvcc889Lc984aHnFbLvwshOrlmhkT1zETIZtyuTPePhtlpcznR/zpbVP7sf57s749Gu/+6Mhy+m/BWV7BkPx8gPo/80kV9Pt1CTN8IvBISHiVV34dFpgtd9xd/7vd+b34stWnjEdbG5pUggptgjPC7h+rqI/JWIzHQgmJvw0Dv1Tk9muDykT6joj79N4v/Of6olO7nqBK+P8+rPLbfc0vqvO08SIjzUvtdTLe5pHLXVJ2n8J2P8srFPtXQSHu3YORZ6dsR/8ifkptHFmrxhzxs81WJi1v5wafZOoVOV7S5ItfVPqeufuz3ylf2du3CzSUcfo3vkkUcuq7tXUuj0qFu2Xf/CdP0fGxtrrfJ02h9ttyrk/HfLyVdddZU888wz848B+svK/mEwd3fjP96XfXTO36/O/q5djEggposB4XEJ12kR+TURefriP1kB0lN4mMgnapxd4Ui0G5e5Td4wRZLDpSZcF4zbJpBObx3062/3aJoepNKJ3hcerq52j3xpff6pdZ2If/jDH7buTPzlV7U7cOBA65G7b33rW/OP3vX7qJvWqxN+Ox/1bkGFR6cT8k40uCXS7CqRE0TZdxL0Eh7+44DtHp3rtIyL8IgY/QuLIDwu8XhYRHbq+wku/qOPZ6gIcQIE4eHdUPlPtfQ9CitQAcLDFASEhwlXF+HRbpVC/y67GuEfIHV7j3/yJ3/SVRxkH/lq982CTisu2cm9255uuxPnat/ulLn2za8rZMUna9NOeGRf6dypjHtPQbf+ZF86FHLehQRiuiIQHgtxfSQi7kMiZzIC5OPz5xUXP3UkQN4wRRXhYcLVQ3hk63Jv4NM7ePdiH7f36mx1W6Kd8Oj0yJeWa3cqWyfo7CNmattOeFgedcsKD3//V+vX7Rz3CF/2pH2WR9bHQQgP/8kAFR5ZVt2ElPp7MYFEDAuKQKBFYE5EhjwWsyKyX0TuQHjUd4QgPEyxRXiYcBmFhz+xuu0Ud6fut5udgP1T2NlHvjp9LKmIFQ//DYTqFyseEaOnXkVY8WDFo14jOrI3CA8TOISHCVcX4aETv35TQd8y6H9V0l8FyJ7xcK8n/oM/+IMFWy3Z8xParHusTB+X8894qK0+PqcvvfHPeHSq2/Kom7brrxD4QiN7XiNkqyUrsNzBz2984xutPrV7wVG7x+10NcidA8lutfh/znLM9r1d7EkgpisC4XEJ17iIPJXSGY+QrUfTaGiwMXnDFHyEhwlXF+GRfaJETds9RZH9CJGeAckeLtWy2ac//KdEsm8WdOdIsmVin2rxD375wiP7hMjo6GjrY06hWy3aL78O/RiW/ugXOfXAaqfPdvsfjVKRoh+08s94uEf/tK7sI3A81RIxwsOLIDwusUruqRaER/hA72WJ8OhFaMHvER4mXF2ER0Q9jS/S7U2NoXBC3ysQWh8JJJRUyw7hcQlX3+/xMJHPwRjhkQPEi1WQN0wsER4mXAiPCFwLi8R+drpTwwiPvkPSTwUIj3B6lXicttt7dLQr/upir2+VWN/Jo4fa/afWsofN9Vru9k6eTu8fCg/B4CwRHia2CA8TLoRHBK60ipBATPFCeITjKl149HqPTvYMlP/huWw3e9XV7p082a3UdsKj0zt5sl+VzR50Dw/DYCzJGyauCA8TLoRHBK60ipBATPFCeITjKl149HqPTrt34rR7RF+73Kuudue1QoSH1u1eQOi38eabb7ZIt/td9oN64SHJz5K8YWKJ8DDhQnhE4EqrCAnEFC+ERziuSggPX0i0e8ePf1Bbu9ZpuyXmnTxW4eGfAVPh0en9QwiP8EFYEUuER0QgSk8gET5TJJAAwiMQ1EURfvHxUVOhhhqXnjd6rVL0ermeH7dedbHi0dBRHtZthEcYpwVWpSeQCJ8pEkgA4REICuFhAtXpG0/WSvqx7/UenXbvuXnllVdaj/uPjLg3wV/woFdd7YRHu+9E6d+prdbf7Z083d4/lH3JYj+MYsuSN0zkEB4mXBeTLa8+jqCWSBESiClQbLWE46rEDUu79+hs2LBh/rP0/lMt2jX3SYR23Yx5J4//yQX9fMTf//3fywsvvDAvPLq9k4enWsIHW8UtER4RAapEAonwmyIBBBAeAZAumSA8wnHVOm9U8Z084aHp35K8YWKI8DDhYsUjAldaRUggpnghPMJx1U54VP2dPOGh6d+SvGFiiPAw4UJ4ROBKqwgJxBQvhEc4rtoJj/Cu19+SvGGKMcLDhAvhEYErrSIkEFO8EB7huBAe4aySsyRvmEKG8DDhQnhE4EqrCAnEFC+ERzguhEc4q+QsyRumkCE8TLgQHhG40ipCAjHFC+ERjgvhEc4qOUvyhilkCA8TLoRHBK60ipBATPFCeITjQniEs0rOkrxhChnCw4QL4RGBK60iJBBTvBAe4bgQHuGskrMkb5hChvAw4UJ4ROBKqwgJxBQvhEc4LoRHOKvkLMkbppAhPEy4EB4RuNIqQgIxxQvhEY4L4RHOKjlL8oYpZAgPEy4RGR4ePnP8+PElK1assBbFvuIETp48KaOjo2dnZ2evrLirVXEP4REYCfJGIKgEzcgb5qAhPKzIRkZGfj45Obl2/fr11qLYV5zAoUOHZGxs7PD09PTnKu5qVdxDeARGgrwRCCpBM/KGOWgIDyuyoaGhnVu3bv3mrl27rrCWxb7aBLZt2/bJ7t27n56bm9tebU8r4x3CIzAU5I1AUAmakTfMQUN4mJGJrFmyZMlPjx07Nsx2SwS9ihbR5dJVq1bNnj179vMicqSiblbNLYRHeETIG+GskrEkb0SFCuERg23ZsmXfHRsb27R3796lMeUpUz0CmzdvPj05Obnv1KlT91XPu8p6hPAwhIa8YYCViCl5IypQCI8obCKie7bj4+Nrt29nVT6WYVXK7dy5UyYmJjjbYQ8IwsPIjLxhBFZhc/JGdHAQHtHoRD49MjLyow0bNlw7MTGxlG2XPkiWVFSXScfHx08fPHjwg+np6S+JyC9KciXVZhEe9siRN+zMKlWCvNF3OBAe/SLU5dNz587dvWXLlkUbN268Yt26dYII6Zfq4Mpr0piampIDBw58smfPnvOLFy9+le2VaN4Ij0h05I1IcCUVI2/kCh7hkRPONUNDQ5tWrlw5NjMzs3p2dnZJTvVSTc4EhoeHzy5fvvzoiRMnJufm5vZxkLQvwAiPvvAJeaM/foWVJm/kihrhkStOKoNAswggPJoVb0tvGRsWWs2yRXg0K970FgK5EmByyRVnrSpjbNQqnLl2BuGRK04qg0CzCDC5NCvelt4yNiy0mmWL8GhWvOktBHIlwOSSK85aVcbYqFU4c+0MwiNXnFQGgWYRYHJpVrwtvWVsWGg1yxbh0ax401sI5EqAySVXnLWqjLFRq3Dm2hmER644qQwCzSLA5NKseFt6y9iw0GqWLcKjWfGmtxDIlQCTS644a1UZY6NW4cy1MwiPXHFSGQSaRYDJpVnxtvSWsWGh1SxbhEez4k1vIZArASaXXHHWqjLGRq3CmWtnEB654qQyCDSLAJNLs+Jt6S1jw0KrWbYIj2bFm95CIFcCTC654qxVZYyNWoUz184gPHLFSWUQaBYBJpdmxdvSW8aGhVazbBEezYo3vYVArgSYXHLFWavKGBu1CmeunUF45IqTyiDQLAJMLs2Kt6W3jA0LrWbZIjyaFW96C4FcCTC55IqzVpUxNmoVzlw7g/DIFSeVQaBZBJhcmhVvS28ZGxZazbJFeDQr3vQWArkSYHLJFWetKmNs1CqcuXYG4ZErTiqDQLMIMLk0K96W3jI2LLSaZYvwaFa86S0EciXA5JIrzlpVxtioVThz7QzCI1ecVAaBZhFgcmlWvC29ZWxYaDXLFuHRrHjTWwjkSoDJJVectaqMsVGrcObaGYRHrjipDALNIsDk0qx4W3rL2LDQapYtwqNZ8aa3EMiVAJNLrjhrVRljo1bhzLUzCI9ccVIZBJpFgMmlWfG29JaxYaHVLFuER7PiTW8hkCsBJpdccdaqMsZGrcKZa2cQHrnipDIINIsAk0uz4m3pLWPDQqtZtgiPZsWb3kIgVwJMLrnirFVljI1ahTPXziA8csVJZRBoFgEml2bF29JbxoaFVrNsER7Nije9hUCuBJhccsVZq8oYG7UKZ66dQXjkipPKINAsAkwuzYq3pbeMDQutZtkiPJoVb3oLgVwJMLnkirNWlTE2ahXOXDuD8MgVJ5VBoFkEmFyaFW9LbxkbFlrNskV4NCve9BYCuRJgcskVZ60qY2zUKpy5dgbhkSvOelb29yLy2/XsGr2CAAQGROAfROR3BlQ31aZNAOGRdvwK8Z47l0IwJ9kIYyPJsOE0BEolgPAoFX8ajTO5pBGnMrxkbJRBnTYhkDYBhEfa8SvEeyaXQjAn2QhjI8mw4TQESiWA8CgVfxqNM7mkEacyvGRslEGdNiGQNgGER9rxK8R7JpdCMCfZCGMjybDhNARKJYDwKBV/Go0zuaQRpzK8ZGyUQZ02IZA2AYRH2vErxHsml0IwJ9kIYyPJsOE0BEolgPAoFX8ajTO5pBGnMrxkbJRBnTYhkDYBhEfa8SvEeyaXQjAn2QhjI8mw4TQESiWA8CgVfxqNM7mkEacyvGRslEGdNiGQNgGER9rxK8R7JpdCMCfZCGMjybDhNARKJYDwKBV/Go0zuaQRpzK8ZGyUQZ02IZA2AYRH2vErxHsml0IwJ9kIYyPJsOE0BEolgPAoFX8ajTO5pBGnMrxkbJRBnTYhkDYBhEfa8SvEeyaXQjAn2QhjI8mw4TQESiWA8CgVfxqNM7mkEacyvGRslEGdNiGQNgGER9rxK8R7JpdCMCfZCGMjybDhNARKJYDwKBV/Go0zuaQRpzK8ZGyUQZ02IZA2AYRH2vErxHsml0IwJ9kIYyPJsOE0BEolgPAoFX8ajTO5pBGnMrxkbJRBnTYhkDYBhEfa8SvEeyaXQjAn2QhjI8mw4TQESiWA8CgVfxqNM7mkEacyvGRslEGdNiGQNgGER9rxK8R7JpdCMCfZCGMjybDhNARKJYDwKBV/Go0zuaQRpzK8ZGyUQZ02IZA2AYRH2vErxHsml0IwJ9kIYyPJsOE0BEolgPAoFX8ajTO5pBGnMrxkbJRBnTYhkDYBhEfa8RuI918XkSdE5FsisltE3OSyVUT+VEQeFZG/GEjLVJoaAYRHahHDXwiUTwDhUX4MKufBchGZFpFTIjIrIqMiclxEhkVkmYiMiMhM5bzGoTIIIDzKoE6bEEibAMIj7fgNzHtd2XhERBZfFBkqRs6JyLMi8scDa5WKUyOA8EgtYvgLgfIJIDzKj0ElPVCh8R8i8inPu/8Skd9gtaOS8SrLKYRHWeRpFwLpEkB4pBu7gXuuqx563uMKEfnk4rkOVjsGjj2pBhAeSYULZyFQCQIIj0qEoZpO+KserHZUM0Zle4XwKDsCtA+B9AggPNKLWaEeu7MenO0oFHsyjSE8kgkVjkKgMgQQHpUJRTUd0VWPV0Xkbs52VDNAJXuF8Cg5ADQPgQQJIDxyCtqaoaGhTStXrhybmZlZPTs7uySneqkmZwLDw8Nnly9ffvTEiROTc3Nz+0TkSM5NNKk6hEd/0SZv9MevsNLkjVxRIzz6xbls2bLvnjt37u4tW7Ys2rhx4xXr1q2TFStW9Fst5QdE4OTJkzI1NSUHDhz4ZM+ePecXL1786qlTp+4bUHN1rxbhERlh8kYkuJKKkTdyBY/w6APnp0dGRn60YcOGaycmJpYiNvogWVJRTSbj4+OnDx48+MH09PSXROQXJbmSarMID3vkyBt2ZpUqQd7oOxwIj1iEIyMjPx8fH1+7ffv22CooVxECO3fulImJicPT09Ofq4hLqbiB8DBGirxhBFZhc/JGdHAQHjHodJl0bGxs0969e5fGlKdM9Qhs3rz59OTk5D62XUyxQXgYcJE3DLASMSVvRAUK4RGBbc2SJUt+euzYsWG2VyLoVbSILp+uWrVq9uzZs5/nwGlwkBAewaiEvBHOKhlL8kZUqBAeVmxDQ0M7t27d+s1du3bpGz35qRGBbdu2fbJ79+6n5+bm2D8LiyvCI4yTkDcCQSVoRt4wBw3hYUWme7STk5Nr169fby2KfcUJHDp0SMbGxjjrER4nhEcgK/JGIKgEzcgb5qAhPKzIhoeHzxw/fnwJ2yxWctW312XT0dHRs7Ozs1dW39tKeIjwCAwDeSMQVIJm5A1z0BAeZmQi58+fV2781JHAokWLtFutf/HTkwDCoyeieQPyRjir5CzJG6aQITxMuC4Yk0AioKVShARiihTCIxwXeSOcVXKW5A1TyBAeJlwIjwhcaRUhgZjihfAIx4XwCGeVnCV5wxQyhIcJF8IjAldaRUggpnghPMJxITzCWSVnSd4whQzhYcKF8IjAlVYREogpXgiPcFwIj3BWyVmSN0whQ3iYcCE8InClVYQEYooXwiMcF8IjnFVyluQNU8gQHiZcCI8IXGkVIYGY4oXwCMeF8AhnlZwlecMUMoSHCRfCIwJXWkVIIKZ4ITzCcSE8wlklZ0neMIUM4WHClZPwePfdd+XJJ5+U119/XUZGRiJc6FxE69WfRx99NNd6Yypzvnzxi1+Uffv2yXPPPSdXXtn73VxnzpyRhx9+WP7xH/9R3njjDfnoo4/k6NGjcuedd5rcmJ6ebpVRFtdff32rzptvvrlrPSQQE2KERzguhEc4q+QsyRumkCE8TLgywkMn1h07dsxXsW7dutZEuWbNmq7VNkV4qLDSn9WrV18mPJwo0N9lBYnyUaFxww03yO233y6/+Zu/GSXSEB4Ro9tWBOERzgvhEc4qOUuEhylkCA8TLk946KT69ttvL5g03YTZ6858kMIjoj8DK+KEhwqI73//+60VB/ejDHQV5D//8z/l8ccf7ynWYpz0hceNN94YVAUJJAiTM0J4hONCeISzSs6SvGEKGcLDhOui8Dh9+nTQsr1OrjfddFOr1K233jp/154VHm5r4eWXX27Zvvbaa/PbAdnfPfHEE/PbKDqx33XXXQvqf+mll1p/dlstR44caa0aTE1NSXZFRldsZmZm5OOPPxZtu93v3YqO/zs3od92223i2gtZ6fFZa9u6BfPjH/9Yrrvuuvn+ZutWv++99955ged+/9Zbb7Wq83+nf/b769p75513LttqccLxqquukmeeeUYcVxKI6YpAeITjQniEs0rOkrxhChnCw4TrovDQb7XoxDk5Odlxa0XFxQMPPDD/e53o3n///ZYg8IXH0qVLWyLmmmuuaf1OJ9YHH3ywtQpw7bXXLvidNn/gwAG55ZZbZP/+/a0VA3dO5J//+Z9b5yfefPPNeeGRvePP+pTtg7+Ko+JK27jnnnta9anthx9+2BIA+jtd1Wm3TRLCU/369re/LU899ZQcPnx4wTZMdgtG6/PPZmgf9EdXMJztpk2bWv50+nO7Mx5OtKko8VdDSCAhEZy3QXiE40J4hLNKzpK8YQoZwsOEyxMebjL2z3j4d9/ZQ556J65i4oUXXmhNtu5wqR6cfOihh+T555+f327Q3+kqgG5RZH+n7bpVkHYHJf12O62suHJZH932R7tDoH5d6oM7tBm6heFz1rp0pcMJLb+udtsjjke7Laxu/e12xqPdVpn6SAIxXREIj3BcCI9wVslZkjdMIUN4mHBlhIdf1k1yOhHrhJo9eKq2brslKzzcVohfn263qPBwYsV/+sUJD73Tz0782Yk4+zSJP4n3Eh7+VpHvfz/Co53vvh8hwiPL1m2TZIUTwiNidNuKIDzCeSE8wlklZ4nwMIUM4WHC1UV46K/8u+hnn312wdmF7B2/v+LRTlyova6SlLXi8d577y3YKsprxaPdGYxeoiYrltyWj24tseIRMYLzK4LwCGdZW+Hh36Bkty7D8eRj2e/B/djXESA8TPFDeJhwXRQeesbhsccek6997Wvz2yPZ7Y/seQot+sorr4geyPRXPLJnPJzgUBs9y+Gf/9A2dAVDVzqyZzz07MfatWvbnvFwZyDanfHQ9txBVH/FQIWH/64RFVXuTEk/Kx7ttjj8VRDtQ3Ybp9MqjSvnn4/xy7qE2O1waXZbiQRiuiIQHuG4FggPN3b1sXH/fT5ulc7dyMS+56fTTUu4u2GWMU+OhdUcZ4XwiONWcCmERwTwVgLxnyhxdfhPo+jfZbcq/C0Bf1LPPrnS7gkS9xSH/1SLv+XgtnGsT7V0Eh769yp63JM2uh108uTJVr9jhUe3synu8O3999/fVXhkn9IZHR1tPTnkiyf3JJGeudHE3ulwsVXp5gAAIABJREFUafZxaO0XwsN0RSA8LuH6uoj8lYjMdCDYVnjoNfX7v//780916XXwt3/7t/PXWtWFR1ECJ3RU9is8QtvJ2pE3TOQQHiZcF1c8VHjwU08CJBBTXBEel3CdFpFfE5GnL/6TFSBthcfv/u7vyt/93d+1nvDSH33aS/9uz549C1ZC/JsM/+aj3ePlf/InfyLf+ta35m8atF5d9VMRrmLbf4T8K1/5yvzj9mqXfVw/a++/ETm7bepuftyNibtZ8rdfso/w682a/hw8eLD137/5m79p/VfL6AF0d3g/W0enG6Z2K7XulQOuXncurp0v+uShX3e31xH4Vwp5w543FokICSScW233asMR1NeSBGKKLXnjEi59O95OXTS7+M+zGQHSVnjoNqgKAv3Rx9P1//W/2W1Otzqndv72a/aJL7ed2+5puXaPkLstWn3bsptkX3zxxdah9U6PnPsjJLvikV3VzNbZ7jUE2o6+S8e9CyjbbnZ7ttuheF946Da225rW82D+drGuJLXzpdtB93bb544FecOeNxAeJmaC8LDxSsqaBGIKF8JjIa6PRMR9fOlMRoB87K+UZs816bt7fv3Xf33+3TZOeLgzYP6j82474Xvf+15r8nRnnLoJAv1dp0fIXbmsaOhlr+WywqPd1os/mbc7vJltJ7tdkv1zqPDIblNlfWvnS7fD6t22iskb9ryB8DAxQ3jYcKVlfTGBpOU03laJwJyIDHkOzYrIfhG5o5Pw0NUFf+Wi3QsG/Ufn/XcCaTt6oNpta7hzZu0EQLeD3e4sl9bn6ogVHtmn9PyXJxYtPLLbQf75uRDh0e11BGy1RF92nPGIQMeKRwS0VIpw52KKFCseOax4ZN/F0054tFvxyH7d2hcb6lb2UfyskMg+FVa3FQ/dbtJD8W7riBUP07U9SGOERwTdgQmPbkt5EX7Wooi7K9HvumTvPgbRQYSHiSrC4xKucRHRE6LmMx7dhIduF/hnE/zH7x955JEFZxj8ifXqq6++7OmwTsLDiZrsJwdiVjyyYqbdGQ9F5h9StW61+PZal/v4pD4a75/xyJ5z6fU6Aa2r3RmPTq8jYMXDlCt8Y4RHBLpKCI+qPT+f5Rj7Ip5sPe7xXT1wh/CIGK2DLYLwuMQ36qmWdm8fbvdIaKenWrJv8fWf/vAf+fefavHfXeM/8q/bEPp4+le/+tWWaIkRHooj+6RNtydS1N4qPPzXD6jP+gi+Co6s8HAHSN2TMfpeJP1xn6fotdWitjzVMpAEgvCIwDow4WHxpWnCQ18f//3vf3/+7sbCymLLioeFFk/DebRM7/EwUca48gTIG6YQITxMuC4YD0x4dNpjdc/da+Pu7iF7p+MOhHW728j+TuvLHiSLfcbf9y374jT38Ty18V9K5r9wLftCtrJevUwCMV0RrHiE4xpY3gh3ActBESBvmMgiPEy4ShAe+vIbNwn3+l5Kdo/WP/2efTV7O5Hjt6VdtTzj3+uRt3avN9dHCPUEvP74J+HVb31l/MaNGyPC018REoiJH8IjHBfCI5xVcpbkDVPIEB4mXCUID/+13u0eo9NDWu5wWnby998VoIfN/FPu1hPsvex939zequJyh8g6Pd9/3XXXtV6Y9MADD8y/QCgiJrkVIYGYUCI8wnEhPMJZJWdJ3jCFDOFhwpWA8HDfKfH7pSsmKjz8VYVeQkLLZ78ho3/X6Rn/EOGhj7ZNTU0tQO7X515t7F69HPudioiYzhchgZjoITzCcSE8wlklZ0neMIUM4WHClYDw6PTkR69XG/f7jH+I8Mi+WKgT+7yeiImILR+Js0FDeITzQniEs0rOEuFhChnCw4SrQsKj3auUs2c81F3dftGf66+/vnWw0z2z7x4T+8Y3vtH20bnsikivZ/yzwqOXkFGf3FkOXY3RH//jTfpn/1n/iDhFFSGBmLAhPMJxITzCWSVnSd4whQzhYcJVIeGh2xD+0yOdnmrxty38Z9LvuOOOVm/0gKf7IFT2M/GWZ/yzwsN/gqbTUy3u9cXqh78N4+z1w05F/5BATMQRHuG4EB7hrJKzJG+YQobwMOEasPCI8CW6iAoD91SJfpmSnwsESCCmkYDwCMeF8AhnlZwlecMUMoSHCVfiwqMq78qIYF5YERKICTXCIxwXwiOcVXKW5A1TyBAeJlyJC4+IvjauCAnEFHKERzguhEc4q+QsyRumkCE8TLgQHhG40ipCAjHFC+ERjgvhEc4qOUvyhilkCA8TLoRHBK60ipBATPFCeITjQniEs0rOkrxhChnCw4QL4RGBK60iJBBTvBAe4bgQHuGskrMkb5hChvAw4UJ4ROBKqwgJxBQvhEc4LoRHOKvkLMkbppAhPEy4EB4RuNIqQgIxxQvhEY4L4RHOKjlL8oYpZAgPEy6ERwSutIqQQEzxQniE40J4hLNKzpK8YQoZwsOEC+ERgSutIiQQU7wQHuG4EB7hrJKzJG+YQobwMOESkeHh4TPHjx9fsmLFCmtR7CtO4OTJkzI6Onp2dna2+He1V5xNB/cQHoFxI28EgkrQjLxhDhrCw4psZGTk55OTk2vXr19vLYp9xQkcOnRIxsbGDk9PT3+u4q5WxT2ER2AkyBuBoBI0I2+Yg4bwsCIbGhrauXXr1m/u2rXrCmtZ7KtNYNu2bZ/s3r376bm5ue3V9rQy3iE8AkNB3ggElaAZecMcNISHGZnImiVLlvz02LFjw2y3RNCraBFdLl21atXs2bNnPy8iRyrqZtXcQniER4S8Ec4qGUvyRlSoEB4x2JYtW/bdsbGxTXv37l0aU54y1SOwefPm05OTk/tOnTp1X/W8q6xHCA9DaMgbBliJmJI3ogKF8IjCJiK6Zzs+Pr52+3ZW5WMZVqXczp07ZWJigrMd9oAgPIzMyBtGYBU2J29EBwfhEY1O5NMjIyM/2rBhw7UTExNL2Xbpg2RJRXWZdHx8/PTBgwc/mJ6e/pKI/KIkV1JtFuFhjxx5w86sUiXIG32HA+HRL0JdPj137tzdW7ZsWbRx48Yr1q1bJ4iQfqkOrrwmjampKTlw4MAne/bsOb948eJX2V6J5o3wiERH3ogEV1Ix8kau4BEeOeFcMzQ0tGnlypVjMzMzq2dnZ5fkVC/V5ExgeHj47PLly4+eOHFicm5ubh8HSfsCjPDoC5+QN/rjV1hp8kauqBEeueKkMgg0iwDCo1nxtvSWsWGh1SxbhEez4k1vIZArASaXXHHWqjLGRq3CmWtnEB654qQyCDSLAJNLs+Jt6S1jw0KrWbYIj2bFm95CIFcCTC654qxVZYyNWoUz184gPHLFSWUQaBYBJpdmxdvSW8aGhVazbBEezYo3vYVArgSYXHLFWavKGBu1CmeunUF45IqTyiDQLAJMLs2Kt6W3jA0LrWbZIjyaFW96C4FcCTC55IqzVpUxNmoVzlw7g/DIFSeVQaBZBJhcmhVvS28ZGxZazbJFeDQr3vQWArkSYHLJFWetKmNs1CqcuXYG4ZErTiqDQLMIMLk0K96W3jI2LLSaZYvwaFa86S0EciXA5JIrzlpVxtioVThz7QzCI1ecVAaBZhFgcmlWvC29ZWxYaDXLFuHRrHjTWwjkSoDJJVectaqMsVGrcObaGYRHrjipDALNIsDk0qx4W3rL2LDQapYtwqNZ8aa3EMiVAJNLrjhrVRljo1bhzLUzCI9ccVIZBJpFgMmlWfG29JaxYaHVLFuER7PiTW8hkCsBJpdccdaqMsZGrcKZa2cQHrnipDIINIsAk0uz4m3pLWPDQqtZtgiPZsWb3kIgVwJMLrnirFVljI1ahTPXziA8csVJZRBoFgEml2bF29JbxoaFVrNsER7Nije9hUCuBJhccsVZq8oYG7UKZ66dQXjkipPKINAsAkwuzYq3pbeMDQutZtkiPJoVb3oLgVwJMLnkirNWlTE2ahXOXDuD8MgVZz0r+3sR+e16do1eQQACAyLwDyLyOwOqm2rTJoDwSDt+hXjPnUshmJNshLGRZNhwGgKlEkB4lIo/jcaZXNKIUxleMjbKoE6bEEibAMIj7fgV4j2TSyGYk2yEsZFk2HAaAqUSQHiUij+Nxplc0ohTGV4yNsqgTpsQSJsAwiPt+BXiPZNLIZiTbISxkWTYcBoCpRJAeJSKP43GmVzSiFMZXjI2yqBOmxBImwDCI+34FeI9k0shmJNshLGRZNhwGgKlEkB4lIo/jcaZXNKIUxleMjbKoE6bEEibAMIj7fgV4j2TSyGYk2yEsZFk2HAaAqUSQHiUij+Nxplc0ohTGV4yNsqgTpsQSJsAwiPt+BXiPZNLIZiTbISxkWTYcBoCpRJAeJSKP43GmVzSiFMZXjI2yqBOmxBImwDCI+34FeI9k0shmJNshLGRZNhwGgKlEkB4lIo/jcaZXNKIUxleMjbKoE6bEEibAMIj7fgV4j2TSyGYk2yEsZFk2HAaAqUSQHiUij+Nxplc0ohTGV4yNsqgTpsQSJsAwiPt+A3E+6+LyBMi8i0R2S0ibnLZKiJ/KiKPishfDKRlKk2NAMIjtYjhLwTKJ4DwKD8GlfNguYhMi8gpEZkVkVEROS4iwyKyTERGRGSmcl7jUBkEEB5lUKdNCKRNAOGRdvwG5r2ubDwiIosvigwVI+dE5FkR+eOBtUrFqRFAeKQWMfyFQPkEEB7lx6CSHqjQ+A8R+ZTn3X+JyG+w2lHJeJXlFMKjLPK0C4F0CSA80o3dwD3XVQ8973GFiHxy8VwHqx0Dx55UAwiPpMKFsxCoBAGERyXCUE0n/FUPVjuqGaOyvUJ4lB0B2odAegQQHunFrFCP3VkPznYUij2ZxhAeyYQKRyFQGQIIj8qEopqO6KrHqyJyN2c7qhmgkr1CeJQcAJqHQIIEEB45BW3N0NDQppUrV47NzMysnp2dXZJTvVSTM4Hh4eGzy5cvP3rixInJubm5fSJyJOcmmlQdwqO/aJM3+uNXWGnyRq6oER794ly2bNl3z507d/eWLVsWbdy48Yp169bJihUr+q2W8gMicPLkSZmampIDBw58smfPnvOLFy9+9dSpU/cNqLm6V4vwiIwweSMSXEnFyBu5gkd49IHz0yMjIz/asGHDtRMTE0sRG32QLKmoJpPx8fHTBw8e/GB6evpLIvKLklxJtVmEhz1y5A07s0qVIG/0HQ6ERyzCkZGRn4+Pj6/dvn17bBWUqwiBnTt3ysTExOHp6enPVcSlVNxAeBgjRd4wAquwOXkjOjgIjxh0ukw6Nja2ae/evUtjylOmegQ2b958enJych/bLqbYIDwMuMgbBliJmJI3ogKF8IjAtmbJkiU/PXbs2DDbKxH0KlpEl09XrVo1e/bs2c9z4DQ4SAiPYFRC3ghnlYwleSMqVAgPK7ahoaGdW7du/eauXbv0jZ781IjAtm3bPtm9e/fTc3Nz7J+FxRXhEcZJyBuBoBI0I2+Yg4bwsCLTPdrJycm169evtxbFvuIEDh06JGNjY5z1CI8TwiOQFXkjEFSCZuQNc9AQHlZkw8PDZ44fP76EbRYruerb67Lp6Ojo2dnZ2Sur720lPER4BIaBvBEIKkEz8oY5aAgPMzKR8+fPKzd+6khg0aJF2q3Wv/jpSQDh0RPRvAF5I5xVcpbkDVPIEB4mXBeMSSAR0FIpQgIxRQrhEY6LvBHOKjlL8oYpZAgPEy6ERwSutIqQQEzxQniE40J4hLNKzpK8YQoZwsOEC+ERgSutIiQQU7wQHuG4EB7hrJKzJG+YQobwMOFCeETgSqsICcQUL4RHOC6ERzir5CzJG6aQITxMuBAeEbjSKkICMcUL4RGOC+ERzio5S/KGKWQIDxMuhEcErrSKkEBM8UJ4hONCeISzSs6SvGEKGcLDhAvhEYErrSIkEFO8EB7huBAe4aySsyRvmEKG8DDhQnjM45qenpY777xTHn30UbnxxhsjMOZfJA+fSCCmuCA8wnFVXnjkcf10wzHo+sNDkb8lecPEFOFhwtVDeDz55JOyY8eOltW9994rzz33nFx5ZT1fgmlJIspFf1SkDPLH4lMnP0ggpgghPMJxBQmP119/Xe66664Ftb7zzjuFiPs8rp+8hEdROSM8fN0tyRsmkggPE66AFY/ULpiI/reKWJJUUUwsPiE8YiO/oBzCIxxjV+Fx5swZefjhh1u1+TcsOqa//e1vy1NPPSUjIyPhrUVY5nH9IDwiwDevCMIjIuZdE0h2ktU7mLfffluuuuoqeeaZZ1rNZe9g/JUSf7Vk//79C8o+8cQTrVUDlyDeeuuty+rL3jG5to4cOSK33367TE1Ntcq4uvT/tf2ZmRn5+OOP5eWXX5bXXnuttY2S/cnW4felU/3vvvuu3HTTTfNVuZWg06dPt9po14ds/7qtHnXzSRv1eYSsQnHnYroiEB7huLrmDb1O9DrU8dpJYOhYf+ihh+T555+XNWvWiBMrmzZtaq2IdLvGs3nIXf/drp9OuaSKOaNb37Mh6pQ/3d/fdttt8tJLL7VyZUjO0PrJG+EXgr79u4XM/Y+paHONzcJDl06dAMgmGL249+3bN59wXILQux4VHn5ZRe4uDk02OnHrBff444/LCy+8IB999NH8/2vy0t8dPnxYNm7cKAcOHJC1a9e2Epa7SF988cVWwtKENzk5KW+88Ubr9+1+su1m74561a91uq0WlzBvvvnm+T6oKPL9ue666+bFzyuvvCKaDLIJuZdPWbbaT7/edv0kgZgubIRHOC5T3mhXbS/h0e0adCLCv+npdv1cf/31rbykeUa3i9tdS1XJGeqrrhY5Aab5xffdZ9ktf6qd5tTVq1e3Vp30R+t1eapbqMkb4RcCwsPEat7YlEB8IaEXsC8Uli5detnAzgoPXS3xl16zwsW/61EPH3jgga4CQm2yE3/IVki23W7Lsr3qzyZQdwel/33kkUdaTK655pqeZ0K6+eSSkZ801F4TUrezNyQQ00WB8AjH1TNv+KLYX2249dZbWxO/3lh0W/HwXcleg9k8pLaWazp7zVYpZ9x///0tweBuxrqFpFv+1Buz7IH5kJsVVjzCL4KLlqx4mJH1+Ehcp60WN9m1Ex5OqasvIcLD37pw/rs7mXYJS1cKXCLSrRT347ZUQpOIP2lnhYelfp+BW8VQv99///22W0mdtn6yQsL3yQkPv7/a715LpwgP0xWB8AjH1VN4aFXZA9j+RNlLeHS7BjsJj27XdHb7Yt26dfM3NVXLGVlfOx3IzW79+vkT4RE+mPu0RHhEADQlkEGsePS6a3d9cskhu4rQa0WiHZOQ1QW3StGr/m4rHtnE287W+Rfiky/qQmKN8AihdGn1T/dqTSWaaxx1xiNUeDih3ekatK54XH311a0zYW77M+8Vj17+ZoWNJWd0Oy/TbdWz3SouKx4DuWARHhFYcxMeerfvJwT1xT/Z7g6XZk+5Z5cV9WLyf9x7NbLCw207ZPc5Q+5eshelu3PQO4vstka2/mzSc8LEJUn/zEl2b7mb8OjmkzLI7kt32/t1/BAepiuCFY9wXFFPtfiTqDblbwX0cw1qXd2uHxUe/raOtuVv41YpZ+hKhebKe+65pxWNbsIjm5ucvf6XFY/wwdynJcIjAmDHBNLuPR5Z8ZDdZvCXR3Up85ZbbpHly5e3llzb3aX4CcM9EeLvAftPrvjbCv4So7YzOjoqX/3qV1uJLCSJuAvUbfNo3UePHp1/gVi3+v1T5CFPtWSf8un2HgO/3axP6nP2ZH6nbRuER8SVcPF0elTJ+hX6uoj8lYjMdOha1Hs83LXttiT98f6Nb3yj9SSaW9Xrdg12yiXdrh//OtS8pD/uiZoq5YzsFpO/JdQuFtmnWhzjrLDTP7PiMZALFeERgTUogUTU2yoSOtBj66dcdwKseJhGCCsel3CdFpFfE5GnL/6TFSADzRumqGGcOwHyhgkpwsOE64JxrgnE8vx5hK8UMRIggZiAITwu4dK3f+28eOZFz708mxEgueYNU5QwHjgB8oYJMcLDhGsAwiOifYoMkAAJxAQX4bEQ10ci4l4veuaiCHEC5OPz5xUXP3UkQN4wRRXhYcKF8IjAlVaRiwkkLafxtkoE5kRkyHNoVkT2i8gdCI8qhSlfXxAeJp4IDxMuhEcErrSKkEBM8WLFgxUP04CpqzF5wxRZhIcJV0nCo9sjpRH+U6QLARKIaXggPC7hGheRp1I64xH6ZIo/IrLv6DGNlhobkzdMwUV4mHAlIDwG/YXJCF7zRarsm3OSBGKKMMLjEq7knmoZpPBo2s0SecOeN/hInIlZvk+12JrubV3lyb3KviE8eo+tNhYIj0tQcnmPR1QUIgvFCI/QphAeoaQaaceKR0TYC38srt3riv3P2Ge/obBjx475brkXZnX6FLQadvs0tiYnvy2t74Ybbmi9Tlk/G60/7hPb+v/Zz2/r37kXgGVfDBbiW0R8+irCnYsJH8IjHFfhecO59v+3d74xXhXnHn9YYF3+rEJ2GwIYorZx6X0B2lR8AYR7wUBqaPizL5pYQcSYimDZcrVaCwWU23rLvXSp/NGQW1EsCS9WICG2GOGWCC/ERIWkt2DaaoxASHcD9MefdYHlZn71bI/H3d/vzJzZc86c+fxe1C77zMzzfJ6HM1/mzG8mfEhY+ECyasIjevhepVOKg8MM1SF+P//5z+XZZ5+V8D1J4du5g0MIw74Ezzj1LFu/fn3Pc2X69OkS2IefM9HnWbU7mOKnycyS54YWN4SHFq5/GKf+AOlNeISvpA6fSnj58uWv3LAY5yro4GbH6KqEejhFr7/WuX670pHPCmYl34LTGg1yZNyEB4gWOoRHfFypPzeUa9GjzsOXMVYSHtETltXPJ06cKJ+sHL4qPnrg4bZt22T+/PlfuUm3mi/BP37UaazqNOXg5+bm5vLpyNFnYHBNhLoaobdj0OOnxY4lzw0tjggPLVw5Eh7KleBCtfDFR70Jj0pXQat+1MNDPZDURN+b8AiPFeVV7frt8ANMtY1eO13Jt+DOGYMcGTfhAaKFDuERH1cmwqO3y9bWrFkjmzZtki1btpS9j17M2JtICMIM/31XAkOJkODOpTCKOJe6hZ8N0Zt3o8+haq9pq63exE+TmSXPDS1uCA8tXA4Lj2C5MhyvWv5Un0pXY/f2F1rn+u04wqMv3xAeBtWZbhOER3zemQmP8KtX5W7wiqOS8FB24VctQZuhQ4d+acUj+sojeH3al/DoyxcT4RF9dRt+FRM/LXYsER5aHBEeWrgcFh5hcRGOudLV8mrijwqP6M2yNlY8+vLNIDeJm/AA0UKI8IiPKzPhcccdd5RXGqMfnVWCvm667muVQ/15+HZb9XOle6iiQqXaiofq69SpUxLc3K0TS/yUxbfkuRGfldquoL52zrdatJjlY4+Hcrm3Vy3qz8PvYNXPOldBh6/ariQ8pk6dWn6YRfuO3oIZXvGI/mupmm+seOgVZgbWCI/40DMRHtE9HsrdYB9GtVctyjb4O9ib8FCvWtQ/GtT+sCFDhnxpH0ZjY2Ovr1WXLl0qu3btkqampjK5vvaExBEewTMw+o+h+CmxZ4nw0GKJ8NDC5cCKh3oAhHex9/XNkfCO8ujV2BcuXBD1Hlg9HHr7l4TO9dvRTWq6vhnkJ1ETHiBa+BAe8XFlIjyUe+G/c+rn4JVEtc2l4W+uBd8aif7DJvq6I/j2irILv6rp7VstYV90VzzC38RT34QZNWpU+dsvve1XiZ8ic0ueG1rsEB5auDISHgY+GjeJCgXjjhxtyANEK3EIj/i4MhMe8V3E0pQAzw0tcggPLVwFFR7hf7WEzwQxYON8Ex4gWilEeMTHhfCIz8o5S54bWilDeGjhKqjwMGBQ2CY8QLRSi/CIjwvhEZ+Vc5Y8N7RShvDQwoXwMMDlVhMeIFr5QnjEx4XwiM/KOUueG1opQ3ho4UJ4GOByqwkPEK18ITzi40J4xGflnCXPDa2UITy0cCE8DHC51YQHiFa+EB7xcSE84rNyzpLnhlbKEB5auBAeBrjcasIDRCtfCI/4uBAe8Vk5Z8lzQytlCA8tXAgPA1xuNeEBopUvhEd8XAiP+Kycs+S5oZUyhIcWLoSHAS63mvAA0coXwiM+LoRHfFbOWfLc0EoZwkMLF8LDAJdbTXiAaOUL4REfF8IjPivnLHluaKUM4aGFS0Rqa2uvnD17tm7EiBG6TbHPOYHz58+ro5c7u7q6huTc1by4h/CImQmeGzFBOWjGc0M7aQgPXWQNDQ1/amtrGz9t2jTdptjnnMChQ4ekubn5REdHxzdz7mpe3EN4xMwEz42YoBw047mhnTSEhy6ympqadcuXL//xhg0bBuu2xT7fBFasWHF148aNv+zu7l6Zb09z4x3CI2YqeG7EBOWgGc8N7aQhPLSRiTTV1dUdP3PmTC2vWwzo5bSJWi4dPXp0V2dn5wQROZlTN/PmFsIjfkZ4bsRn5Ywlzw2jVCE8TLANHz78pebm5gXbt28fatKeNvkjsGjRosttbW07Ll68+Fj+vMutRwgPjdTw3NCA5Ygpzw2jRCE8jLCJiHpn29LSMn7lSlblTRnmpd26deuktbWVvR36CUF4aDLjuaEJLMfmPDeMk4PwMEYnMqahoeHA7Nmzx7W2tg7ltUsCkhk1VcukLS0tl/ft2/dpR0fHDBE5nZErrg6L8NDPHM8NfWa5asFzI3E6EB5JEarl02vXrj28ZMmSAXPmzBk8ceJEQYQkpdp/7dVD49ixY7J3796rW7duvTFo0KBXeL1izBvhYYiO54YhuIya8dywCh7hYQlnU01NzYKRI0c2l0ql27q6uuos9Us3lgnU1tZ21tfXf3Lu3Lm27u7uHWwkTQQY4ZEIn/DcSMYvtdY8N6yiRnhYxUlnEPCLAMLDr3zrREtt6NDyyxbh4Ve+iRYCVgkwuVjFWajOqI1CpdNqMAgPqzjpDAJ+EWBy8SvfOtFSGzq0/LJFePiVb6KFgFUCTC5WcRZaW0NpAAAgAElEQVSqM2qjUOm0GgzCwypOOoOAXwSYXPzKt0601IYOLb9sER5+5ZtoIWCVAJOLVZyF6ozaKFQ6rQaD8LCKk84g4BcBJhe/8q0TLbWhQ8svW4SHX/kmWghYJcDkYhVnoTqjNgqVTqvBIDys4qQzCPhFgMnFr3zrREtt6NDyyxbh4Ve+iRYCVgkwuVjFWajOqI1CpdNqMAgPqzjpDAJ+EWBy8SvfOtFSGzq0/LJFePiVb6KFgFUCTC5WcRaqM2qjUOm0GgzCwypOOoOAXwSYXPzKt0601IYOLb9sER5+5ZtoIWCVAJOLVZyF6ozaKFQ6rQaD8LCKk84g4BcBJhe/8q0TLbWhQ8svW4SHX/kmWghYJcDkYhVnoTqjNgqVTqvBIDys4qQzCPhFgMnFr3zrREtt6NDyyxbh4Ve+iRYCVgkwuVjFWajOqI1CpdNqMAgPqzjpDAJ+EWBy8SvfOtFSGzq0/LJFePiVb6KFgFUCTC5WcRaqM2qjUOm0GgzCwypOOoOAXwSYXPzKt0601IYOLb9sER5+5ZtoIWCVAJOLVZyF6ozaKFQ6rQaD8LCKk84g4BcBJhe/8q0TLbWhQ8svW4SHX/kmWghYJcDkYhVnoTqjNgqVTqvBIDys4ixmZ/8rIv9azNCICgIQ6CcCfxCRf+unvunWbQIID7fzl4r3/MslFcxODkJtOJk2nIZApgQQHpnid2NwJhc38pSFl9RGFtQZEwJuE0B4uJ2/VLxnckkFs5ODUBtOpg2nIZApAYRHpvjdGJzJxY08ZeEltZEFdcaEgNsEEB5u5y8V75lcUsHs5CDUhpNpw2kIZEoA4ZEpfjcGZ3JxI09ZeEltZEGdMSHgNgGEh9v5S8V7JpdUMDs5CLXhZNpwGgKZEkB4ZIrfjcGZXNzIUxZeUhtZUGdMCLhNAOHhdv5S8Z7JJRXMTg5CbTiZNpyGQKYEEB6Z4ndjcCYXN/KUhZfURhbUGRMCbhNAeLidv1S8Z3JJBbOTg1AbTqYNpyGQKQGER6b43RicycWNPGXhJbWRBXXGhIDbBBAebucvFe+ZXFLB7OQg1IaTacNpCGRKAOGRKX43BmdycSNPWXhJbWRBnTEh4DYBhIfb+UvFeyaXVDA7OQi14WTacBoCmRJAeGSK343BmVzcyFMWXlIbWVBnTAi4TQDh4Xb+UvGeySUVzE4OQm04mTachkCmBBAemeJ3Y3AmFzfylIWX1EYW1BkTAm4TQHi4nb9UvGdySQWzk4NQG06mDachkCkBhEem+N0YnMnFjTxl4SW1kQV1xoSA2wQQHm7nLxXvmVxSwezkINSGk2nDaQhkSgDhkSn+fA7+7yLynIg8KyIbRSSYXJaLyC9EZJWI/Hc+XcerlAkgPFIGznAQKAABhEcBkmg7hHoR6RCRiyLSJSKjROSsiNSKyHARaRCRku1B6c9JAggPJ9OG0xDIlADCI1P8+R1crWw8KSKDvhAZSoxcE5H/EpGf5NdtPEuZAMIjZeAMB4ECEEB4FCCJ/RGCEhp/E5GbQp1/LiJfY7WjP3A72yfCw9nU4TgEMiOA8MgMff4HVqsear/HYBG5+sW+DlY78p+3ND1EeKRJm7EgUAwCCI9i5LFfogiverDa0S+Ine8U4eF8CgkAAqkTQHikjtytAYO9HuztcCtvaXmL8EiLNONAoDgEEB7FyWW/RKJWPV4RkYfZ29EvfF3vFOHhegbxHwLpE0B4WGLeVFNTs2DkyJHNpVLptq6urjpL/dKNZQK1tbWd9fX1n5w7d66tu7t7h4ictDyET90hPHzKNrFCwA4BhEdSjsOHD3/p2rVrDy9ZsmTAnDlzBk+cOFFGjBiRtFva9xOB8+fPy7Fjx2Tv3r1Xt27demPQoEGvXLx48bF+Gq7o3SI8ip5h4oOAfQIIjwRMxzQ0NByYPXv2uNbW1qGIjQQkM2qqREhLS8vlffv2fdrR0TFDRE5n5IqrwyI8XM0cfkMgOwIID1P2DQ0Nf2ppaRm/cuVK0y5olxMC69atk9bW1hMdHR3fzIlLrriB8HAlU/gJgfwQQHiY5EK9Xmlubl6wffv2oSbtaZM/AosWLbrc1ta2g9cuWrlBeGjhwhgCEAju/xoQuggMKtUJNNXV1R0/c+ZMLa9XqsNyxUK9dhk9enRXZ2fnBDacxs4awiM2KgwhAIEvCLDioVsKNTU165YvX/7jDRs2qBM9+RSIwIoVK65u3Ljxl93d3bw/i5dXhEc8TlhBAAL/JIDw0K0Gtbejra1t/LRp03SbYp9zAocOHZLm5mb2esTPE8IjPissIQCBfxBAeOhWQm1t7ZWzZ8/W8ZpFl1z+7dXrllGjRnV2dXUNyb+3ufAQ4ZGLNOAEBJwigPAwSNeNGzcUNz5FJDBggNryJOX/4VOVAMKjKiIMIACBCAGEh0FJWBUeR44ckeeff15++9vfSkNDg4E7lZucPHlSfvjDH8qvf/1rGTdunPzoRz+SqVOnyve//33rYxWhQ4SHVhYRHlq4MIYABHjVYlYDsYVHeNJvamrqGe3KlStlAbBgwYLynyE8zBLRH60QHlpUER5auDCGAAQQHmY1EFt4BAIjusKgBMmaNWtk06ZN/bLKEQ6rL/FjFnrxWyE8tHKM8NDChTEEIIDwMKuB2MJDda9eobzzzjvyq1/9SoYM+ceeRfVnf/3rX2XVqlUSfdWifvfggw/2eHb48GGZPHlyeVVEfVQb9VHtduzY0dOv+v3Pfvaz8u/UfTG7du0StcpS6VVLdCzV9rnnniuP0ZcfwQpNqVSSv//97/Lyyy/L66+/3uurm2gfs2bNKverPupVz/z582XLli3ln1U/q1evLo+t4g3GueOOO8q2QRzNzc3ygx/8oPz7wNcAVphB9HdxU43wiEuqbIfw0MKFMQQggPAwqwEt4RFdcQi/ZlETbFh4tLe3f2klRLU9ceKEzJkzp6LwuHz5srzxxhvy6KOP9kzYp06dKouSTz/9NNYej6hAUaJGvQpSYkmJBfVzsA9FTfBtbW094qY3jCqupUuX9tiE4wyEx2233dYjnDo6OsoCo5Lw+N73vqe+7lq2idqHBZ7qX73KGjt2bI9Qi5tqhEdcUggPLVIYQwACAQE2lxrUgpbw6O1f7uHXLOEJWYmM8GQd9q3aikfYNipmqm0uDSZxJTR623QaFU9RX3pj2Ju/wV6WQHiERUYc4RHEEeyXCcZ48sknv7Jp1nTTLsJD628EKx5auDCGAARY8TCrAW3hEX4tolYmgolX/bfSq5bg1YT6tks14aH6mTJlSk9EQVu1ilJNePQmJJTYUCsM6gp59Qm/vokrPILXJNE4bQmP4JVVIDyUcApe05juo0F4aP2lQHho4cIYAhBAeJjVgLbwUP+aX7ZsmTz99NOyc+dOeeSRR8r7L3oTHn2tclQSHu+//36frzWqCY/e9qAEomPz5s3liZwVD7NC8aAVwsODJBMiBCwT4FWLAVBt4aHGUMJBbchUn7Vr1/ZsNI2+alG/D2+uVD8Hmz2DTarqz9QeBvVR+ziU8Ah/JTe8J6OS8OjrGy/RP4/u14iz4hFdyVFt1J+FN5eGX7VEvwEUiJ+nnnrqS5tL1Xkk0U2z6udwzEOHDmWPh0FhGzRBeBhAowkEPCeA8DAoACPhEbwKiX4DJLofI/x6Q317I/g2TDAxq29/qNcejz/+eFlwqN8HQkT9Tn1UH+r4bzUZVxIe4W+BBByCb4OEfzdz5szyr4NJP47wCMRW8E0b1W+w4VVtho1uJFX24dc7Kvabb765HGvwrZYwG2UffOMn8J1vtRhUc7ImCI9k/GgNAR8JIDwMsm4kPAzGKVST8FeITQJL6zwS9nhoZQfhoYULYwhAgD0eZjWA8IjBLfiWyv79+8vW4dWbGM2/YoLwMKHW720QHv2OmAEgUDgCrHgYpBThYQDNlSaseGhlCuGhhQtjCECAFQ+zGkB4mHFzohXCQytNCA8tXBhDAAIID7MaQHiYcXOiFcJDK00IDy1cGEMAAggPsxpAeJhxc6IVwkMrTQgPLVwYQwACCA+zGkB4mHFzohXCQytNCA8tXBhDAAIID7MayER4hM/xUG6Hb1/t6/yK4FRSdR7G+vXry9FGz74IIwgOOQtunQ0fk17tLhXVT/jY9krHvfd1WJg6nj08pll6krVCeGjxQ3ho4cIYAhBAeJjVQOrCI5iow7et7t27V9TBXurul+iJpoFdcC19IDaqXZwWvXU2fJx6b4d+KfvgPpbo6abhczui96aEf1YpCB8mFu3HLEXmrRAeWuwQHlq4MIYABBAeZjWQuvDo6wyL6MpBsOoQHJ/++9//vkeUqOvtq12cVuk+mGrCI9o2PFZwhHlwiVtYlETFUG8xmaXJrBXCQ4sbwkMLF8YQgADCw6wGMhEea9askU2bNom6qTb4BJN0X7eypi08guPRA//Cr1v6ukk2fHOvEkfqE15JMUuReSuEhxY7hIcWLowhAAGEh1kNZCI8gqvtg1ttlet5W/EIXrv0hjVYAVG39KrXRMFFeax4mBVhTlohPHKSCNyAgEMEOLnUIFmpC4/oHg/1844dO0StdKg9Hur/qxWF6K2s0Svvk7xqUZzUjbhTp0790qVtwe2xve3N2LZtm8yfP79nlUatZPzxj3+U7373u+U+1CfYtKpiUX/GHg+DisyuCcIjO/aMDAFXCSA8DDKXuvAIT9DB3Sc632oJbrhNIjyCPSLBDbHR22OVj+Fvtaifwz4Gv1+6dKns2rWrfLV98AnfSsu3WgwqMrsmCI/s2DMyBFwlgPAwyFwmwsPAT5oYEGCPhxY0hIcWLowhAAH2eJjVAMLDjJsTrRAeWmlCeGjhwhgCEEB4mNUAwsOMmxOtEB5aaUJ4aOHCGAIQQHiY1QDCw4ybE60QHlppQnho4cIYAhBAeJjVAMLDjJsTrRAeWmlCeGjhwhgCEEB4mNVA6sKjr5NLzdynVSUCCA+t+kB4aOHCGAIQQHiY1UCuhUdvl7mZhWm/VZ59C6JFeGjlHeGhhQtjCEAA4WFWA6kLDx038zy559k3hIdOlfXYIjyMsNEIAl4T4BwPg/SnLjyir1oqXV+vfhe+M+X1118vnwgaTPrBAWTBjbUq/vABXgGP4PfRsVR/3/72tyU4SEzZhw8KC05Lvfnmm2X9+vXl7sJ96fpmkJ9ETVjx0MKH8NDChTEEIMCKh1kN5EJ4tLW19ZwAWu36+uix5L1dSx8cWR5dlVDCIzyWQqbuWhk/fnz59NFAtGzevFkmT55cPrr9wQcf7BEb4btYVFslglatWlW2VZ9KvoUvxDNLlX4rhIcWM4SHFi6MIQABhIdZDeRCeCjX1QSuPuEbXnu7vr6vi9iU2FAfJS6UYFATfW/CIzxWFFn0orpK98P0Jjwq+RaIE7M0mbVCeGhxQ3ho4cIYAhBAeJjVgJPCY8qUKV+JVr0CUR91yVxwn0sc4RGIjZdffrmnz+CVjonw6Ms3hIdZgabYCuGRImyGgkBBCLDHwyCRTgqPsLgIxxxdcagmPHq7KTd8a62J8OjLN4PcJG7CiocWQoSHFi6MIQABVjzMaiDXwkOFFBYC6ufoPgr1Z0pwqI/aqxHedxHcMBveEKrsgtc60Vcr0b4rCY+hQ4dq+caKh1mBptgK4ZEibIaCQEEIsOJhkMhcCw91fX34evq+vtUya9asnn0dYXt13f2FCxdkzZo15c2jav9HWHgEoiV4PaKusR81apQsXLiwLGAqCQ+1h0TXN4P8JGrCiocWPoSHFi6MIQABVjzMaiB14WHmplmr8DdesvhWiZnX9lohPLRYIjy0cGEMAQggPMxqoHDCI3z2h1rB2LVrV3m1w8cPwkMr6wgPLVwYQwACCA+zGiic8DDDUMxWCA+tvCI8tHBhDAEIIDwMaqC2tvbK2bNn60aMGGHQmiZ5JnD+/Hm1X6Wzq6trSJ79zJFvCI8cJQNXIOAIATaX6iaqoaHhT21tbeOnTZum2xT7nBM4dOiQNDc3n+jo6Phmzl3Ni3sIj7xkAj8g4A4BhIdurmpqatYtX778xxs2bBis2xb7fBNYsWLF1Y0bN/6yu7t7Zb49zY13CI/cpAJHIOAMAYSHQaqa6urqjp85c6aW1y0G9HLaRL1mGT16dFdnZ+cEdW9eTt3Mm1sIj7xlBH8gkH8CCA+THA0fPvyl5ubmBdu3bx9q0p42+SOwaNGiy21tbTsuXrz4WP68y61HCI/cpgbHIJBbAggP09SovR4tLS3jV65kVd6UYV7arVu3TlpbW9nboZ8QhIc+M1pAwHcCCI8EFTCmoaHhwOzZs8e1trYO5bVLApIZNVWvV1paWi7v27fv046OjhkicjojV1wdFuHhaubwGwLZEUB4JGWvXrtcu3bt4SVLlgyYM2fOYHUAFyIkKdX+a6/ExrFjx2Tv3r1Xt27demPQoEGv8HrFmDfCwxgdDSHgLQGEh6XUN9XU1CwYOXJkc6lUuq2rq6vOUr90Y5lAbW1tZ319/Sfnzp1r6+7u3sFG0kSAER6J8NEYAl4SQHh4mXa9oJlc9Hj5ZE1t+JRtYoWAHQIIDzscC90Lk0uh05soOGojET4aQ8BLAggPL9OuFzSTix4vn6ypDZ+yTawQsEMA4WGHY6F7YXIpdHoTBUdtJMJHYwh4SQDh4WXa9YJmctHj5ZM1teFTtokVAnYIIDzscCx0L0wuhU5vouCojUT4aAwBLwkgPLxMu17QTC56vHyypjZ8yjaxQsAOAYSHHY6F7oXJpdDpTRQctZEIH40h4CUBhIeXadcLmslFj5dP1tSGT9kmVgjYIYDwsMOx0L0wuRQ6vYmCozYS4aMxBLwkgPDwMu16QTO56PHyyZra8CnbxAoBOwQQHnY4FroXJpdCpzdRcNRGInw0hoCXBBAeXqZdL2gmFz1ePllTGz5lm1ghYIcAwsMOx0L3wuRS6PQmCo7aSISPxhDwkgDCw8u06wXN5KLHyydrasOnbBMrBOwQQHjY4VjoXphcCp3eRMFRG4nw0RgCXhJAeHiZdr2gmVz0ePlkTW34lG1ihYAdAggPOxwL3QuTS6HTmyg4aiMRPhpDwEsCCA8v064XNJOLHi+frKkNn7JNrBCwQwDhYYdjoXthcil0ehMFR20kwkdjCHhJAOHhZdr1gmZy0ePlkzW14VO2iRUCdgggPOxwLHQvTC6FTm+i4KiNRPhoDAEvCSA8vEy7XtBMLnq8fLKmNnzKNrFCwA4BhIcdjoXuhcml0OlNFBy1kQgfjSHgJQGEh5dp1wuayUWPl0/W1IZP2SZWCNghgPCww7HQvTC5FDq9iYKjNhLhozEEvCSA8PAy7XpBM7no8fLJmtrwKdvECgE7BBAedjgWuhcml0KnN1Fw1EYifDSGgJcEEB5epl0vaCYXPV4+WVMbPmWbWCFghwDCww7HQvfC5FLo9CYKjtpIhI/GEPCSAMLDy7TrBc3kosfLJ2tqw6dsEysE7BBAeNjhWOhemFwKnd5EwVEbifDRGAJeEkB4eJl2vaCZXPR4+WRNbfiUbWKFgB0CCA87HAvdC5NLodObKDhqIxE+GkPASwIIDy/Trhc0k4seL5+sqQ2fsk2sELBDAOFhh2Ohe2FyKXR6EwVHbSTCR2MIeEkA4eFl2vWCZnLR4+WTNbXhU7aJFQJ2CCA87HAsdC9MLoVOb6LgqI1E+GgMAS8JIDy8TLte0Ewuerx8sqY2fMo2sULADgGEhx2Ohe6FyaXQ6U0UHLWRCB+NIeAlAYSHl2nXC5rJRY+XT9bUhk/ZJlYI2CGA8LDDsVC9/LuIPCciz4rIRhEJJpflIvILEVklIv9dqIgJxpQAwsOUHO0g4C8BhIe/ue8z8noR6RCRiyLSJSKjROSsiNSKyHARaRCREtwgEBKlwIAABCAQlwDCIy4pz+zUysaTIjLoC5GhxMg1EfkvEfmJZywIt28CrHhQHRCAgC4BhIcuMU/sldD4m4jcFIr3cxH5GqsdnlRAvDARHvE4YQUBCPyTAMKDauiTgFr1UPs9BovI1S/2dbDaQcGECSA8qAcIQECXAMJDl5hH9uFVD1Y7PEq8RqgIDw1YmEIAAmUCCA8KoSKBYK8HezsolN4IIDyoCwhAQJcAwkOXmGf2atXjFRF5mL0dnmU+XrgIj3icsIIABP5JAOFBNfQQGCci940cOXJGTU3N3Z2dnWM6OzuHX79+feDAgQOv19XVXayrqzvd3d39wblz5w6IyNsi8in8vCaA8PA6/QQPASMCCA8jbMVqtLixsfGJK1eujJ85c+bV++67r37ChAly++23S2Njo9x0003y+eefS3t7u3z88cdy/Phxefvtt0tvvfXW4CFDhpxob29/UUR+UywkRBOTAMIjJijMIACBHgIID4+L4bH6+vrn77nnnsFPPPHELXPnztVGsWfPHnnxxRcvvPfee1dLpZI60fQl7U5o4DIBhIfL2cN3CGRDAOGRDfdMR727sbHxN01NTbe98MILI6ZMmZLYmcOHD8szzzxz/uTJk5+0t7cvFpEPEndKBy4QQHi4kCV8hEC+CCA88pWPfvdGiYL/2bx5szz++OPWB9uyZYssXbpU9fsIr1+s481jhwiPPGYFnyCQbwIIj3znx6p3Px0zZszTu3fvrp80aZLVjsOdHT16VObNm1c6ffr0f4rIf/TbQHScBwIIjzxkAR8g4BYBhIdb+TL29qd33nnnUwcPHrxl7Nixxp3EbXjq1CmZPn36hY8++mg94iMuNSftEB5Opg2nIZApAYRHpvjTGXzxmDFjWo8ePVqfhugIQlLiY9KkSWrlo4XXLukkOoNREB4ZQGdICDhOAOHheAKruX+3iLz/7rvvKhFQzdb679Vrl3vvvVf1+y02nFrHm4cOER55yAI+QMAtAggPt/Kl521jY+MHa9euvas/NpLG9URtOF29evWH7e3tSgTxKRYBhEex8kk0EEiDAMIjDcoZjfHY5MmTf3H48OEROuMfOXJEdu7cKfv375fPPvusfHiYOkTs1ltvlVmzZskDDzwgkydP1ulSpkyZcv7IkSPqZlvO+dAil3tjhEfuU4SDEMgdAYRH7lJiyaH6+vq/vfnmm41xz+k4duyYLFu2TNR/S6VSn17U19fLxIkTZdOmTeX/xvmocz7uv//+9lKp9LU49tg4QwDh4UyqcBQCuSGA8MhNKuw6snj69OkbDhw4cEucbl977TV56KGH4ph+yebVV1+VhQsXxmo3Y8aMCwcPHlzBRtNYuFwxQni4kin8hEB+CCA88pMLe56ovR3btm27K84x6Ep0LFmyRC5fvqztwNChQ2Xr1q2xxIc6Xv3RRx9lr4c25Vw3QHjkOj04B4FcEkB45DItyZwaN2zYsJMXL16sq9aNeq1y1113VTOr+vsPP/ww1muX4cOHd166dKmJW22rInXFAOHhSqbwEwL5IYDwyE8urHmyeN68ea1vvPFGfbUep06dKmr/RdKP2kfyzjvvVO1m/vz5pd27d3OuR1VSzhggPJxJFY5CIDcEEB65SYUlR0aOHPnbdevWPVDtK7Tq2yvf+c53Km4kjeuS2nD6u9/9ruq3XdRXa1euXLnz3Llz34/bN3a5JoDwyHV6cA4CuSSA8MhlWhI41dDQ8H979uz5ZrVvs6jL3JQQsPVRQkddPlfpo1ZX5s6d+6eOjo5/sTUu/WRKAOGRKX4Gh4CTBBAeTqatgtPDhg1T19NXvZPlG9/4hvzlL3+xFv7Xv/51+fOf/1yxP3WMelNT04VLly5pnS1izUk6sk0A4WGbKP1BoPgEEB5Fy/HAgQOvXbp0aaA69KvSp66urnw4mK2PGq+zs7Nid2q8YcOGXb9+/fogW+PST6YEEB6Z4mdwCDhJAOHhZNoqO33jxg2V18qfAQMGVDPR/r3GuPYH1/aWBhYIIDwsQKQLCHhGAOFRtISz4lG0jOY6HoRHrtODcxDIJQGERy7TksAp9ngkgEdTXQIID11i2EMAAgiPotUA32opWkZzHQ/CI9fpwTkI5JIAwiOXaUngFOd4JIBHU10CCA9dYthDAAIIjwLWACeXFjCpOQ0J4ZHTxOAWBHJMAOGR4+SYusZdLabkaKdLAOGhSwx7CEAA4VHEGuB22iJmNZcxITxymRacgkCuCSA8cp0ec+cWT58+fcOBAwduidPFa6+9Jg899FAc0y/ZvPrqq7Jw4cJY7WbMmHHh4MGDK0TkN7EaYOQCAYSHC1nCRwjkiwDCI1/5sOdNfX393958883Gane2BCMeO3ZMli1bJuq/pVKpT0fUhXATJ06UTZs2lf8b56PuaLn//vvbS6XS1+LYY+MMAYSHM6nCUQjkhgDCIzepsO/IY5MnT/7F4cOHte5FUbfW7ty5U/bv3y+fffZZ+Vh1dRz6rbfeKrNmzZIHHnig6i200VCmTJly/siRIz8RkZfsh0mPGRJAeGQIn6Eh4CgBhIejiYvlttrrsXbt2rvUzbFZfdQNuKtXr/6wvb397qx8YNx+I4Dw6De0dAyBwhJAeBQ2tf8ITE3277/77rsyadKk1EM9evSo3HvvvWrcb4nIB6k7wID9TQDh0d+E6R8CxSOA8CheTr8S0eIxY8a0Hj16tH7s2LGphXvq1CkldkqnT59uYUNpatjTHgjhkTZxxoOA+wQQHu7nMFYEP73zzjufOnjw4C1piA8lOqZPn37ho48+Wi8i/xHLQ4xcJIDwcDFr+AyBbAkgPLLln+roPx0zZszTu3fvru/P1y7q9cq8efPUSsd/IjpSzW8WgyE8sqDOmBBwmwDCw+38aXu/WET+Z/PmzdIfG07VRtKlS5cqpx7h9Yp2blxsgPBwMWv4DIFsCSA8suWfyeh3NzY2/qapqem2F154YUTccz4qearO6XjmmWfOnzx58pP29nYlbthImklqUx8U4ZE6cgaEgPMEEB7Op9A8gMfq6+ufv+eeewY/8cQTt8ydO1e7pwwS+TIAAAJCSURBVD179siLL7544b333rtaKpVWcU6HNkLXGyA8XM8g/kMgfQIIj/SZ527ExY2NjU9cuXJl/MyZM6/ed9999RMmTJDbb79dGhsby4eHqUPE2tvb5eOPP5bjx4/L22+/XXrrrbcGDxky5ER7e/uLvFbJXU7TcgjhkRZpxoFAcQggPIqTy8SRjBOR+0aOHDmjpqbm7s7OzjGdnZ3Dr1+/PnDgwIHX6+rqLtbV1Z3u7u7+4Ny5cwdE5G0R+TTxqHTgMgGEh8vZw3cIZEMA4ZENd0aFQCEIIDwKkUaCgECqBBAeqeJmMAgUiwDCo1j5JBoIpEEA4ZEGZcaAQEEJIDwKmljCgkA/EkB49CNcuoZA0QkgPIqeYeKDgH0CCA/7TOkRAt4QQHh4k2oChYA1AggPayjpCAL+EUB4+JdzIoZAUgIIj6QEaQ8BjwkgPDxOPqFDwJAAwsMQHM0gAAERhAdVAAEI6BJAeOgSwx4CEOghgPCgGCAAAV0CCA9dYthDAAIID2oAAhAwJoDwMEZHQwhAgBUPagACENAlgPDQJYY9BCDAigc1AAEIGBNAeBijoyEEIMCKBzUAAQjoEkB46BLDHgIQYMWDGoAABIwJIDyM0dEQAhBgxYMagAAEdAkgPHSJYQ8BCLDiQQ1AAALGBBAexuhoCAEIsOJBDUAAAroEEB66xLCHAARY8aAGIAABYwIID2N0NIQABFjxoAYgAAFdAj3C439F5F91W2MPAQh4TeC8iIzwmgDBQwACugT+ICL/9v9VwLdJKz4XnwAAAA5lWElmTU0AKgAAAAgAAAAAAAAA0lOTAAAAAElFTkSuQmCC;" vertex="1" parent="1">
          <mxGeometry x="-790" y="30" width="542" height="921" as="geometry" />
        </mxCell>
      </root>
    </mxGraphModel>
  </diagram>
</mxfile>
